<mxfile host="app.diagrams.net" agent="Mozilla/5.0 (Windows NT 10.0; Win64; x64) AppleWebKit/537.36 (KHTML, like Gecko) Chrome/130.0.0.0 Safari/537.36" version="24.8.3" pages="3">
  <diagram name="Page-1" id="2et4n63SRirsrI-bXk6S">
    <mxGraphModel dx="1105" dy="635" grid="1" gridSize="10" guides="1" tooltips="1" connect="1" arrows="1" fold="1" page="1" pageScale="1" pageWidth="827" pageHeight="1169" math="0" shadow="0">
      <root>
        <mxCell id="0" />
        <mxCell id="1" parent="0" />
        <mxCell id="jQfZUN6T3VpTdKgrBx4--13" value="Pet" style="rounded=1;whiteSpace=wrap;html=1;labelBackgroundColor=none;fillColor=#09555B;strokeColor=#BAC8D3;fontColor=#EEEEEE;" vertex="1" parent="1">
          <mxGeometry x="540" y="200" width="120" height="60" as="geometry" />
        </mxCell>
        <mxCell id="jQfZUN6T3VpTdKgrBx4--14" value="Pet Catergory" style="ellipse;whiteSpace=wrap;html=1;labelBackgroundColor=none;fillColor=#09555B;strokeColor=#BAC8D3;fontColor=#EEEEEE;" vertex="1" parent="1">
          <mxGeometry x="480" y="120" width="70" height="50" as="geometry" />
        </mxCell>
        <mxCell id="jQfZUN6T3VpTdKgrBx4--15" value="Pet Description" style="ellipse;whiteSpace=wrap;html=1;labelBackgroundColor=none;fillColor=#09555B;strokeColor=#BAC8D3;fontColor=#EEEEEE;" vertex="1" parent="1">
          <mxGeometry x="565" y="100" width="70" height="50" as="geometry" />
        </mxCell>
        <mxCell id="jQfZUN6T3VpTdKgrBx4--16" value="Pet Name" style="ellipse;whiteSpace=wrap;html=1;labelBackgroundColor=none;fillColor=#09555B;strokeColor=#BAC8D3;fontColor=#EEEEEE;" vertex="1" parent="1">
          <mxGeometry x="650" y="110" width="70" height="50" as="geometry" />
        </mxCell>
        <mxCell id="jQfZUN6T3VpTdKgrBx4--17" value="Sex" style="ellipse;whiteSpace=wrap;html=1;labelBackgroundColor=none;fillColor=#09555B;strokeColor=#BAC8D3;fontColor=#EEEEEE;" vertex="1" parent="1">
          <mxGeometry x="720" y="150" width="70" height="50" as="geometry" />
        </mxCell>
        <mxCell id="jQfZUN6T3VpTdKgrBx4--18" value="User (Adopter)" style="rounded=1;whiteSpace=wrap;html=1;labelBackgroundColor=none;fillColor=#09555B;strokeColor=#BAC8D3;fontColor=#EEEEEE;" vertex="1" parent="1">
          <mxGeometry x="120" y="400" width="120" height="60" as="geometry" />
        </mxCell>
        <mxCell id="jQfZUN6T3VpTdKgrBx4--19" value="Breed" style="ellipse;whiteSpace=wrap;html=1;labelBackgroundColor=none;fillColor=#09555B;strokeColor=#BAC8D3;fontColor=#EEEEEE;" vertex="1" parent="1">
          <mxGeometry x="756" y="205" width="70" height="50" as="geometry" />
        </mxCell>
        <mxCell id="jQfZUN6T3VpTdKgrBx4--20" value="Weight" style="ellipse;whiteSpace=wrap;html=1;labelBackgroundColor=none;fillColor=#09555B;strokeColor=#BAC8D3;fontColor=#EEEEEE;" vertex="1" parent="1">
          <mxGeometry x="420" y="170" width="70" height="50" as="geometry" />
        </mxCell>
        <mxCell id="jQfZUN6T3VpTdKgrBx4--21" value="Age" style="ellipse;whiteSpace=wrap;html=1;labelBackgroundColor=none;fillColor=#09555B;strokeColor=#BAC8D3;fontColor=#EEEEEE;" vertex="1" parent="1">
          <mxGeometry x="720" y="260" width="70" height="50" as="geometry" />
        </mxCell>
        <mxCell id="jQfZUN6T3VpTdKgrBx4--22" value="Owner" style="ellipse;whiteSpace=wrap;html=1;labelBackgroundColor=none;fillColor=#09555B;strokeColor=#BAC8D3;fontColor=#EEEEEE;" vertex="1" parent="1">
          <mxGeometry x="650" y="290" width="70" height="50" as="geometry" />
        </mxCell>
        <mxCell id="jQfZUN6T3VpTdKgrBx4--32" value="" style="endArrow=none;html=1;rounded=0;entryX=1;entryY=0.5;entryDx=0;entryDy=0;exitX=0;exitY=0.5;exitDx=0;exitDy=0;labelBackgroundColor=none;fontColor=default;strokeColor=#0B4D6A;" edge="1" parent="1" source="jQfZUN6T3VpTdKgrBx4--13" target="jQfZUN6T3VpTdKgrBx4--20">
          <mxGeometry width="50" height="50" relative="1" as="geometry">
            <mxPoint x="410" y="380" as="sourcePoint" />
            <mxPoint x="460" y="330" as="targetPoint" />
          </mxGeometry>
        </mxCell>
        <mxCell id="jQfZUN6T3VpTdKgrBx4--33" value="" style="endArrow=none;html=1;rounded=0;entryX=0.25;entryY=0;entryDx=0;entryDy=0;exitX=1;exitY=1;exitDx=0;exitDy=0;labelBackgroundColor=none;fontColor=default;strokeColor=#0B4D6A;" edge="1" parent="1" source="jQfZUN6T3VpTdKgrBx4--14" target="jQfZUN6T3VpTdKgrBx4--13">
          <mxGeometry width="50" height="50" relative="1" as="geometry">
            <mxPoint x="550" y="240" as="sourcePoint" />
            <mxPoint x="500" y="205" as="targetPoint" />
          </mxGeometry>
        </mxCell>
        <mxCell id="jQfZUN6T3VpTdKgrBx4--34" value="" style="endArrow=none;html=1;rounded=0;entryX=0.5;entryY=0;entryDx=0;entryDy=0;exitX=0.5;exitY=1;exitDx=0;exitDy=0;labelBackgroundColor=none;fontColor=default;strokeColor=#0B4D6A;" edge="1" parent="1" source="jQfZUN6T3VpTdKgrBx4--15" target="jQfZUN6T3VpTdKgrBx4--13">
          <mxGeometry width="50" height="50" relative="1" as="geometry">
            <mxPoint x="560" y="250" as="sourcePoint" />
            <mxPoint x="510" y="215" as="targetPoint" />
          </mxGeometry>
        </mxCell>
        <mxCell id="jQfZUN6T3VpTdKgrBx4--35" value="" style="endArrow=none;html=1;rounded=0;entryX=0.75;entryY=0;entryDx=0;entryDy=0;exitX=0;exitY=1;exitDx=0;exitDy=0;labelBackgroundColor=none;fontColor=default;strokeColor=#0B4D6A;" edge="1" parent="1" source="jQfZUN6T3VpTdKgrBx4--16" target="jQfZUN6T3VpTdKgrBx4--13">
          <mxGeometry width="50" height="50" relative="1" as="geometry">
            <mxPoint x="570" y="260" as="sourcePoint" />
            <mxPoint x="520" y="225" as="targetPoint" />
          </mxGeometry>
        </mxCell>
        <mxCell id="jQfZUN6T3VpTdKgrBx4--36" value="" style="endArrow=none;html=1;rounded=0;entryX=1;entryY=0.25;entryDx=0;entryDy=0;exitX=0;exitY=0.5;exitDx=0;exitDy=0;labelBackgroundColor=none;fontColor=default;strokeColor=#0B4D6A;" edge="1" parent="1" source="jQfZUN6T3VpTdKgrBx4--17" target="jQfZUN6T3VpTdKgrBx4--13">
          <mxGeometry width="50" height="50" relative="1" as="geometry">
            <mxPoint x="580" y="270" as="sourcePoint" />
            <mxPoint x="530" y="235" as="targetPoint" />
          </mxGeometry>
        </mxCell>
        <mxCell id="jQfZUN6T3VpTdKgrBx4--37" value="" style="endArrow=none;html=1;rounded=0;entryX=1;entryY=0.5;entryDx=0;entryDy=0;exitX=0;exitY=0.5;exitDx=0;exitDy=0;labelBackgroundColor=none;fontColor=default;strokeColor=#0B4D6A;" edge="1" parent="1" source="jQfZUN6T3VpTdKgrBx4--19" target="jQfZUN6T3VpTdKgrBx4--13">
          <mxGeometry width="50" height="50" relative="1" as="geometry">
            <mxPoint x="590" y="280" as="sourcePoint" />
            <mxPoint x="540" y="245" as="targetPoint" />
          </mxGeometry>
        </mxCell>
        <mxCell id="jQfZUN6T3VpTdKgrBx4--40" value="Id" style="ellipse;whiteSpace=wrap;html=1;labelBackgroundColor=none;fillColor=#09555B;strokeColor=#BAC8D3;fontColor=#EEEEEE;" vertex="1" parent="1">
          <mxGeometry x="100" y="330" width="70" height="50" as="geometry" />
        </mxCell>
        <mxCell id="jQfZUN6T3VpTdKgrBx4--41" value="Name" style="ellipse;whiteSpace=wrap;html=1;labelBackgroundColor=none;fillColor=#09555B;strokeColor=#BAC8D3;fontColor=#EEEEEE;" vertex="1" parent="1">
          <mxGeometry x="30" y="370" width="70" height="50" as="geometry" />
        </mxCell>
        <mxCell id="jQfZUN6T3VpTdKgrBx4--42" value="Location" style="ellipse;whiteSpace=wrap;html=1;labelBackgroundColor=none;fillColor=#09555B;strokeColor=#BAC8D3;fontColor=#EEEEEE;" vertex="1" parent="1">
          <mxGeometry x="30" y="440" width="70" height="50" as="geometry" />
        </mxCell>
        <mxCell id="jQfZUN6T3VpTdKgrBx4--45" value="" style="endArrow=none;html=1;rounded=0;entryX=1;entryY=0.75;entryDx=0;entryDy=0;exitX=0;exitY=0;exitDx=0;exitDy=0;labelBackgroundColor=none;fontColor=default;strokeColor=#0B4D6A;" edge="1" parent="1" source="jQfZUN6T3VpTdKgrBx4--21" target="jQfZUN6T3VpTdKgrBx4--13">
          <mxGeometry width="50" height="50" relative="1" as="geometry">
            <mxPoint x="766" y="240" as="sourcePoint" />
            <mxPoint x="670" y="240" as="targetPoint" />
          </mxGeometry>
        </mxCell>
        <mxCell id="jQfZUN6T3VpTdKgrBx4--46" value="" style="endArrow=none;html=1;rounded=0;entryX=0.75;entryY=1;entryDx=0;entryDy=0;exitX=0;exitY=0;exitDx=0;exitDy=0;labelBackgroundColor=none;fontColor=default;strokeColor=#0B4D6A;" edge="1" parent="1" source="jQfZUN6T3VpTdKgrBx4--22" target="jQfZUN6T3VpTdKgrBx4--13">
          <mxGeometry width="50" height="50" relative="1" as="geometry">
            <mxPoint x="776" y="250" as="sourcePoint" />
            <mxPoint x="680" y="250" as="targetPoint" />
          </mxGeometry>
        </mxCell>
        <mxCell id="jQfZUN6T3VpTdKgrBx4--51" value="Email" style="ellipse;whiteSpace=wrap;html=1;labelBackgroundColor=none;fillColor=#09555B;strokeColor=#BAC8D3;fontColor=#EEEEEE;" vertex="1" parent="1">
          <mxGeometry x="90" y="490" width="70" height="50" as="geometry" />
        </mxCell>
        <mxCell id="jQfZUN6T3VpTdKgrBx4--54" value="" style="endArrow=none;html=1;rounded=0;exitX=0.5;exitY=1;exitDx=0;exitDy=0;entryX=0.5;entryY=0;entryDx=0;entryDy=0;labelBackgroundColor=none;fontColor=default;strokeColor=#0B4D6A;" edge="1" parent="1" source="jQfZUN6T3VpTdKgrBx4--40" target="jQfZUN6T3VpTdKgrBx4--18">
          <mxGeometry width="50" height="50" relative="1" as="geometry">
            <mxPoint x="390" y="310" as="sourcePoint" />
            <mxPoint x="440" y="260" as="targetPoint" />
          </mxGeometry>
        </mxCell>
        <mxCell id="jQfZUN6T3VpTdKgrBx4--55" value="" style="endArrow=none;html=1;rounded=0;exitX=1;exitY=1;exitDx=0;exitDy=0;entryX=0;entryY=0.25;entryDx=0;entryDy=0;labelBackgroundColor=none;fontColor=default;strokeColor=#0B4D6A;" edge="1" parent="1" source="jQfZUN6T3VpTdKgrBx4--41" target="jQfZUN6T3VpTdKgrBx4--18">
          <mxGeometry width="50" height="50" relative="1" as="geometry">
            <mxPoint x="180" y="382" as="sourcePoint" />
            <mxPoint x="190" y="410" as="targetPoint" />
          </mxGeometry>
        </mxCell>
        <mxCell id="jQfZUN6T3VpTdKgrBx4--56" value="" style="endArrow=none;html=1;rounded=0;exitX=1;exitY=0;exitDx=0;exitDy=0;entryX=0;entryY=0.75;entryDx=0;entryDy=0;labelBackgroundColor=none;fontColor=default;strokeColor=#0B4D6A;" edge="1" parent="1" source="jQfZUN6T3VpTdKgrBx4--42" target="jQfZUN6T3VpTdKgrBx4--18">
          <mxGeometry width="50" height="50" relative="1" as="geometry">
            <mxPoint x="100" y="422" as="sourcePoint" />
            <mxPoint x="130" y="425" as="targetPoint" />
          </mxGeometry>
        </mxCell>
        <mxCell id="jQfZUN6T3VpTdKgrBx4--57" value="" style="endArrow=none;html=1;rounded=0;exitX=0.5;exitY=0;exitDx=0;exitDy=0;entryX=0.5;entryY=1;entryDx=0;entryDy=0;labelBackgroundColor=none;fontColor=default;strokeColor=#0B4D6A;" edge="1" parent="1" source="jQfZUN6T3VpTdKgrBx4--51" target="jQfZUN6T3VpTdKgrBx4--18">
          <mxGeometry width="50" height="50" relative="1" as="geometry">
            <mxPoint x="100" y="458" as="sourcePoint" />
            <mxPoint x="130" y="455" as="targetPoint" />
          </mxGeometry>
        </mxCell>
        <mxCell id="jQfZUN6T3VpTdKgrBx4--58" value="User (Giver)" style="rounded=1;whiteSpace=wrap;html=1;labelBackgroundColor=none;fillColor=#09555B;strokeColor=#BAC8D3;fontColor=#EEEEEE;" vertex="1" parent="1">
          <mxGeometry x="540" y="550" width="120" height="60" as="geometry" />
        </mxCell>
        <mxCell id="jQfZUN6T3VpTdKgrBx4--59" value="Id" style="ellipse;whiteSpace=wrap;html=1;labelBackgroundColor=none;fillColor=#09555B;strokeColor=#BAC8D3;fontColor=#EEEEEE;" vertex="1" parent="1">
          <mxGeometry x="530" y="650" width="70" height="50" as="geometry" />
        </mxCell>
        <mxCell id="jQfZUN6T3VpTdKgrBx4--60" value="Name" style="ellipse;whiteSpace=wrap;html=1;labelBackgroundColor=none;fillColor=#09555B;strokeColor=#BAC8D3;fontColor=#EEEEEE;" vertex="1" parent="1">
          <mxGeometry x="680" y="510" width="70" height="50" as="geometry" />
        </mxCell>
        <mxCell id="jQfZUN6T3VpTdKgrBx4--61" value="Location" style="ellipse;whiteSpace=wrap;html=1;labelBackgroundColor=none;fillColor=#09555B;strokeColor=#BAC8D3;fontColor=#EEEEEE;" vertex="1" parent="1">
          <mxGeometry x="687" y="580" width="70" height="50" as="geometry" />
        </mxCell>
        <mxCell id="jQfZUN6T3VpTdKgrBx4--62" value="Email" style="ellipse;whiteSpace=wrap;html=1;labelBackgroundColor=none;fillColor=#09555B;strokeColor=#BAC8D3;fontColor=#EEEEEE;" vertex="1" parent="1">
          <mxGeometry x="617" y="650" width="70" height="50" as="geometry" />
        </mxCell>
        <mxCell id="jQfZUN6T3VpTdKgrBx4--63" value="" style="endArrow=none;html=1;rounded=0;exitX=0.5;exitY=0;exitDx=0;exitDy=0;entryX=0.25;entryY=1;entryDx=0;entryDy=0;labelBackgroundColor=none;fontColor=default;strokeColor=#0B4D6A;" edge="1" parent="1" source="jQfZUN6T3VpTdKgrBx4--59" target="jQfZUN6T3VpTdKgrBx4--58">
          <mxGeometry width="50" height="50" relative="1" as="geometry">
            <mxPoint x="810" y="460" as="sourcePoint" />
            <mxPoint x="860" y="410" as="targetPoint" />
          </mxGeometry>
        </mxCell>
        <mxCell id="jQfZUN6T3VpTdKgrBx4--66" value="" style="endArrow=none;html=1;rounded=0;exitX=0.5;exitY=0;exitDx=0;exitDy=0;entryX=0.75;entryY=1;entryDx=0;entryDy=0;labelBackgroundColor=none;fontColor=default;strokeColor=#0B4D6A;" edge="1" parent="1" source="jQfZUN6T3VpTdKgrBx4--62" target="jQfZUN6T3VpTdKgrBx4--58">
          <mxGeometry width="50" height="50" relative="1" as="geometry">
            <mxPoint x="520" y="608" as="sourcePoint" />
            <mxPoint x="550" y="605" as="targetPoint" />
          </mxGeometry>
        </mxCell>
        <mxCell id="jQfZUN6T3VpTdKgrBx4--67" value="" style="endArrow=none;html=1;rounded=0;exitX=1;exitY=0.25;exitDx=0;exitDy=0;entryX=0;entryY=1;entryDx=0;entryDy=0;labelBackgroundColor=none;fontColor=default;strokeColor=#0B4D6A;" edge="1" parent="1" source="jQfZUN6T3VpTdKgrBx4--58" target="jQfZUN6T3VpTdKgrBx4--60">
          <mxGeometry width="50" height="50" relative="1" as="geometry">
            <mxPoint x="575" y="660" as="sourcePoint" />
            <mxPoint x="580" y="620" as="targetPoint" />
          </mxGeometry>
        </mxCell>
        <mxCell id="jQfZUN6T3VpTdKgrBx4--69" value="" style="endArrow=none;html=1;rounded=0;exitX=1;exitY=0.75;exitDx=0;exitDy=0;entryX=0;entryY=0.5;entryDx=0;entryDy=0;labelBackgroundColor=none;fontColor=default;strokeColor=#0B4D6A;" edge="1" parent="1" source="jQfZUN6T3VpTdKgrBx4--58" target="jQfZUN6T3VpTdKgrBx4--61">
          <mxGeometry width="50" height="50" relative="1" as="geometry">
            <mxPoint x="670" y="575" as="sourcePoint" />
            <mxPoint x="700" y="562" as="targetPoint" />
          </mxGeometry>
        </mxCell>
        <mxCell id="jQfZUN6T3VpTdKgrBx4--70" value="Inbox" style="endArrow=classic;startArrow=classic;html=1;rounded=0;exitX=0.75;exitY=1;exitDx=0;exitDy=0;entryX=0;entryY=0.75;entryDx=0;entryDy=0;labelBackgroundColor=none;fontColor=default;strokeColor=#0B4D6A;" edge="1" parent="1" source="jQfZUN6T3VpTdKgrBx4--18" target="jQfZUN6T3VpTdKgrBx4--58">
          <mxGeometry width="50" height="50" relative="1" as="geometry">
            <mxPoint x="390" y="410" as="sourcePoint" />
            <mxPoint x="440" y="360" as="targetPoint" />
            <Array as="points">
              <mxPoint x="210" y="595" />
            </Array>
          </mxGeometry>
        </mxCell>
        <mxCell id="jQfZUN6T3VpTdKgrBx4--71" value="Search" style="endArrow=classic;html=1;rounded=0;exitX=0.75;exitY=0;exitDx=0;exitDy=0;entryX=0;entryY=0.75;entryDx=0;entryDy=0;labelBackgroundColor=none;fontColor=default;strokeColor=#0B4D6A;" edge="1" parent="1" source="jQfZUN6T3VpTdKgrBx4--18" target="jQfZUN6T3VpTdKgrBx4--13">
          <mxGeometry width="50" height="50" relative="1" as="geometry">
            <mxPoint x="390" y="410" as="sourcePoint" />
            <mxPoint x="440" y="360" as="targetPoint" />
            <Array as="points">
              <mxPoint x="210" y="245" />
            </Array>
          </mxGeometry>
        </mxCell>
        <mxCell id="jQfZUN6T3VpTdKgrBx4--72" value="" style="endArrow=classic;html=1;rounded=0;entryX=0.5;entryY=1;entryDx=0;entryDy=0;exitX=0.5;exitY=0;exitDx=0;exitDy=0;labelBackgroundColor=none;fontColor=default;strokeColor=#0B4D6A;" edge="1" parent="1" source="jQfZUN6T3VpTdKgrBx4--58" target="jQfZUN6T3VpTdKgrBx4--13">
          <mxGeometry width="50" height="50" relative="1" as="geometry">
            <mxPoint x="390" y="410" as="sourcePoint" />
            <mxPoint x="440" y="360" as="targetPoint" />
          </mxGeometry>
        </mxCell>
        <mxCell id="jQfZUN6T3VpTdKgrBx4--73" value="Add" style="edgeLabel;html=1;align=center;verticalAlign=middle;resizable=0;points=[];labelBackgroundColor=none;fontColor=#EEEEEE;" vertex="1" connectable="0" parent="jQfZUN6T3VpTdKgrBx4--72">
          <mxGeometry x="-0.0552" y="-3" relative="1" as="geometry">
            <mxPoint as="offset" />
          </mxGeometry>
        </mxCell>
        <mxCell id="jQfZUN6T3VpTdKgrBx4--74" value="" style="endArrow=classic;html=1;rounded=0;exitX=1;exitY=0.25;exitDx=0;exitDy=0;entryX=0.25;entryY=1;entryDx=0;entryDy=0;labelBackgroundColor=none;fontColor=default;strokeColor=#0B4D6A;" edge="1" parent="1" source="jQfZUN6T3VpTdKgrBx4--18" target="jQfZUN6T3VpTdKgrBx4--13">
          <mxGeometry width="50" height="50" relative="1" as="geometry">
            <mxPoint x="390" y="410" as="sourcePoint" />
            <mxPoint x="440" y="360" as="targetPoint" />
          </mxGeometry>
        </mxCell>
        <mxCell id="jQfZUN6T3VpTdKgrBx4--75" value="Favourite" style="edgeLabel;html=1;align=center;verticalAlign=middle;resizable=0;points=[];labelBackgroundColor=none;fontColor=#EEEEEE;" vertex="1" connectable="0" parent="jQfZUN6T3VpTdKgrBx4--74">
          <mxGeometry x="-0.0141" y="3" relative="1" as="geometry">
            <mxPoint as="offset" />
          </mxGeometry>
        </mxCell>
        <mxCell id="jQfZUN6T3VpTdKgrBx4--77" value="" style="endArrow=none;dashed=1;html=1;dashPattern=1 3;strokeWidth=2;rounded=0;exitX=0;exitY=0;exitDx=0;exitDy=0;labelBackgroundColor=none;fontColor=default;strokeColor=#0B4D6A;" edge="1" parent="1" source="jQfZUN6T3VpTdKgrBx4--15" target="jQfZUN6T3VpTdKgrBx4--78">
          <mxGeometry width="50" height="50" relative="1" as="geometry">
            <mxPoint x="390" y="200" as="sourcePoint" />
            <mxPoint x="440" y="150" as="targetPoint" />
          </mxGeometry>
        </mxCell>
        <mxCell id="jQfZUN6T3VpTdKgrBx4--78" value="Picture" style="ellipse;whiteSpace=wrap;html=1;labelBackgroundColor=none;fillColor=#09555B;strokeColor=#BAC8D3;fontColor=#EEEEEE;" vertex="1" parent="1">
          <mxGeometry x="530" y="40" width="60" height="40" as="geometry" />
        </mxCell>
        <mxCell id="jQfZUN6T3VpTdKgrBx4--80" value="Paragraph" style="ellipse;whiteSpace=wrap;html=1;labelBackgroundColor=none;fillColor=#09555B;strokeColor=#BAC8D3;fontColor=#EEEEEE;" vertex="1" parent="1">
          <mxGeometry x="610" y="40" width="60" height="40" as="geometry" />
        </mxCell>
        <mxCell id="jQfZUN6T3VpTdKgrBx4--81" value="" style="endArrow=none;dashed=1;html=1;dashPattern=1 3;strokeWidth=2;rounded=0;exitX=1;exitY=0;exitDx=0;exitDy=0;entryX=0.5;entryY=1;entryDx=0;entryDy=0;labelBackgroundColor=none;fontColor=default;strokeColor=#0B4D6A;" edge="1" parent="1" source="jQfZUN6T3VpTdKgrBx4--15" target="jQfZUN6T3VpTdKgrBx4--80">
          <mxGeometry width="50" height="50" relative="1" as="geometry">
            <mxPoint x="585" y="118" as="sourcePoint" />
            <mxPoint x="576" y="90" as="targetPoint" />
          </mxGeometry>
        </mxCell>
      </root>
    </mxGraphModel>
  </diagram>
  <diagram id="BwER0-H7fe852sTEaQrJ" name="Page-2">
    <mxGraphModel dx="1167" dy="670" grid="1" gridSize="10" guides="1" tooltips="1" connect="1" arrows="1" fold="1" page="1" pageScale="1" pageWidth="827" pageHeight="1169" math="0" shadow="0">
      <root>
        <mxCell id="0" />
        <mxCell id="1" parent="0" />
        <mxCell id="vMGZGPtzZTwcsV-AKPQY-1" value="" style="rounded=0;whiteSpace=wrap;html=1;" vertex="1" parent="1">
          <mxGeometry x="40" y="40" width="760" height="190" as="geometry" />
        </mxCell>
        <mxCell id="vMGZGPtzZTwcsV-AKPQY-2" value="Login - User" style="text;html=1;align=center;verticalAlign=middle;whiteSpace=wrap;rounded=0;" vertex="1" parent="1">
          <mxGeometry x="60" y="60" width="80" height="30" as="geometry" />
        </mxCell>
        <mxCell id="vMGZGPtzZTwcsV-AKPQY-3" value="Start" style="ellipse;whiteSpace=wrap;html=1;aspect=fixed;strokeColor=#BAC8D3;fontColor=#EEEEEE;fillColor=#09555B;" vertex="1" parent="1">
          <mxGeometry x="70" y="120" width="70" height="70" as="geometry" />
        </mxCell>
        <mxCell id="vMGZGPtzZTwcsV-AKPQY-4" value="Open App" style="rounded=0;whiteSpace=wrap;html=1;strokeColor=#BAC8D3;fontColor=#EEEEEE;fillColor=#09555B;" vertex="1" parent="1">
          <mxGeometry x="180" y="128.75" width="110" height="52.5" as="geometry" />
        </mxCell>
        <mxCell id="vMGZGPtzZTwcsV-AKPQY-5" value="Already Register ?" style="rhombus;whiteSpace=wrap;html=1;strokeColor=#BAC8D3;fontColor=#EEEEEE;fillColor=#09555B;" vertex="1" parent="1">
          <mxGeometry x="330" y="115" width="80" height="80" as="geometry" />
        </mxCell>
        <mxCell id="vMGZGPtzZTwcsV-AKPQY-6" value="Login" style="rounded=0;whiteSpace=wrap;html=1;strokeColor=#BAC8D3;fontColor=#EEEEEE;fillColor=#09555B;" vertex="1" parent="1">
          <mxGeometry x="520" y="139.38" width="80" height="31.25" as="geometry" />
        </mxCell>
        <mxCell id="vMGZGPtzZTwcsV-AKPQY-8" value="Stop" style="ellipse;whiteSpace=wrap;html=1;aspect=fixed;strokeColor=#BAC8D3;fontColor=#EEEEEE;fillColor=#09555B;" vertex="1" parent="1">
          <mxGeometry x="700" y="120" width="70" height="70" as="geometry" />
        </mxCell>
        <mxCell id="vMGZGPtzZTwcsV-AKPQY-9" value="Google Signin" style="rounded=0;whiteSpace=wrap;html=1;strokeColor=#BAC8D3;fontColor=#EEEEEE;fillColor=#09555B;" vertex="1" parent="1">
          <mxGeometry x="520" y="80" width="80" height="31.25" as="geometry" />
        </mxCell>
        <mxCell id="vMGZGPtzZTwcsV-AKPQY-10" value="" style="endArrow=classic;html=1;rounded=0;strokeColor=#0B4D6A;exitX=1;exitY=0.5;exitDx=0;exitDy=0;entryX=0;entryY=0.5;entryDx=0;entryDy=0;" edge="1" parent="1" source="vMGZGPtzZTwcsV-AKPQY-3" target="vMGZGPtzZTwcsV-AKPQY-4">
          <mxGeometry width="50" height="50" relative="1" as="geometry">
            <mxPoint x="390" y="340" as="sourcePoint" />
            <mxPoint x="440" y="290" as="targetPoint" />
          </mxGeometry>
        </mxCell>
        <mxCell id="vMGZGPtzZTwcsV-AKPQY-11" value="" style="endArrow=classic;html=1;rounded=0;strokeColor=#0B4D6A;entryX=0;entryY=0.5;entryDx=0;entryDy=0;exitX=1;exitY=0.5;exitDx=0;exitDy=0;" edge="1" parent="1" source="vMGZGPtzZTwcsV-AKPQY-4" target="vMGZGPtzZTwcsV-AKPQY-5">
          <mxGeometry width="50" height="50" relative="1" as="geometry">
            <mxPoint x="390" y="340" as="sourcePoint" />
            <mxPoint x="440" y="290" as="targetPoint" />
          </mxGeometry>
        </mxCell>
        <mxCell id="vMGZGPtzZTwcsV-AKPQY-12" value="" style="endArrow=classic;html=1;rounded=0;strokeColor=#0B4D6A;entryX=0;entryY=0.5;entryDx=0;entryDy=0;exitX=1;exitY=0.5;exitDx=0;exitDy=0;" edge="1" parent="1" source="vMGZGPtzZTwcsV-AKPQY-5" target="vMGZGPtzZTwcsV-AKPQY-6">
          <mxGeometry width="50" height="50" relative="1" as="geometry">
            <mxPoint x="400" y="350" as="sourcePoint" />
            <mxPoint x="450" y="300" as="targetPoint" />
          </mxGeometry>
        </mxCell>
        <mxCell id="vMGZGPtzZTwcsV-AKPQY-18" value="Yes" style="edgeLabel;html=1;align=center;verticalAlign=middle;resizable=0;points=[];strokeColor=#BAC8D3;fontColor=#000000;fillColor=#09555B;labelBackgroundColor=#FFFFFF;" vertex="1" connectable="0" parent="vMGZGPtzZTwcsV-AKPQY-12">
          <mxGeometry x="0.3055" y="-2" relative="1" as="geometry">
            <mxPoint x="-22" y="-2" as="offset" />
          </mxGeometry>
        </mxCell>
        <mxCell id="vMGZGPtzZTwcsV-AKPQY-13" value="" style="endArrow=classic;html=1;rounded=0;strokeColor=#0B4D6A;entryX=0;entryY=0.5;entryDx=0;entryDy=0;exitX=1;exitY=0.5;exitDx=0;exitDy=0;" edge="1" parent="1" source="vMGZGPtzZTwcsV-AKPQY-6" target="vMGZGPtzZTwcsV-AKPQY-8">
          <mxGeometry width="50" height="50" relative="1" as="geometry">
            <mxPoint x="410" y="360" as="sourcePoint" />
            <mxPoint x="460" y="310" as="targetPoint" />
          </mxGeometry>
        </mxCell>
        <mxCell id="vMGZGPtzZTwcsV-AKPQY-14" value="" style="endArrow=classic;html=1;rounded=0;strokeColor=#0B4D6A;entryX=0;entryY=0.5;entryDx=0;entryDy=0;exitX=0.5;exitY=0;exitDx=0;exitDy=0;" edge="1" parent="1" source="vMGZGPtzZTwcsV-AKPQY-5" target="vMGZGPtzZTwcsV-AKPQY-9">
          <mxGeometry width="50" height="50" relative="1" as="geometry">
            <mxPoint x="420" y="370" as="sourcePoint" />
            <mxPoint x="460" y="330" as="targetPoint" />
            <Array as="points">
              <mxPoint x="370" y="96" />
            </Array>
          </mxGeometry>
        </mxCell>
        <mxCell id="vMGZGPtzZTwcsV-AKPQY-19" value="&lt;font color=&quot;#000000&quot;&gt;No&lt;/font&gt;" style="edgeLabel;html=1;align=center;verticalAlign=middle;resizable=0;points=[];strokeColor=#BAC8D3;fontColor=#EEEEEE;fillColor=#09555B;" vertex="1" connectable="0" parent="vMGZGPtzZTwcsV-AKPQY-14">
          <mxGeometry x="0.184" relative="1" as="geometry">
            <mxPoint as="offset" />
          </mxGeometry>
        </mxCell>
        <mxCell id="vMGZGPtzZTwcsV-AKPQY-15" value="" style="endArrow=classic;html=1;rounded=0;strokeColor=#0B4D6A;entryX=0.5;entryY=0;entryDx=0;entryDy=0;exitX=0.5;exitY=1;exitDx=0;exitDy=0;" edge="1" parent="1" source="vMGZGPtzZTwcsV-AKPQY-9" target="vMGZGPtzZTwcsV-AKPQY-6">
          <mxGeometry width="50" height="50" relative="1" as="geometry">
            <mxPoint x="430" y="380" as="sourcePoint" />
            <mxPoint x="480" y="330" as="targetPoint" />
          </mxGeometry>
        </mxCell>
        <mxCell id="vMGZGPtzZTwcsV-AKPQY-20" value="" style="rounded=0;whiteSpace=wrap;html=1;" vertex="1" parent="1">
          <mxGeometry x="40" y="310" width="760" height="190" as="geometry" />
        </mxCell>
        <mxCell id="vMGZGPtzZTwcsV-AKPQY-21" value="&lt;font color=&quot;#000000&quot;&gt;Map - User&lt;/font&gt;" style="text;html=1;align=center;verticalAlign=middle;whiteSpace=wrap;rounded=0;fontColor=#EEEEEE;" vertex="1" parent="1">
          <mxGeometry x="60" y="340" width="80" height="30" as="geometry" />
        </mxCell>
        <mxCell id="vMGZGPtzZTwcsV-AKPQY-22" value="Start" style="ellipse;whiteSpace=wrap;html=1;aspect=fixed;strokeColor=#BAC8D3;fontColor=#EEEEEE;fillColor=#09555B;" vertex="1" parent="1">
          <mxGeometry x="65" y="405.01" width="60" height="60" as="geometry" />
        </mxCell>
        <mxCell id="vMGZGPtzZTwcsV-AKPQY-24" value="Open App" style="rounded=0;whiteSpace=wrap;html=1;strokeColor=#BAC8D3;fontColor=#EEEEEE;fillColor=#09555B;" vertex="1" parent="1">
          <mxGeometry x="160" y="408.60999999999996" width="70" height="52.8" as="geometry" />
        </mxCell>
        <mxCell id="vMGZGPtzZTwcsV-AKPQY-26" value="Explore" style="rounded=0;whiteSpace=wrap;html=1;strokeColor=#BAC8D3;fontColor=#EEEEEE;fillColor=#09555B;" vertex="1" parent="1">
          <mxGeometry x="260" y="408.61999999999995" width="70" height="52.8" as="geometry" />
        </mxCell>
        <mxCell id="vMGZGPtzZTwcsV-AKPQY-27" value="Already Locate ?" style="rhombus;whiteSpace=wrap;html=1;strokeColor=#BAC8D3;fontColor=#EEEEEE;fillColor=#09555B;" vertex="1" parent="1">
          <mxGeometry x="370" y="400.01" width="60" height="70" as="geometry" />
        </mxCell>
        <mxCell id="vMGZGPtzZTwcsV-AKPQY-30" value="Enter location" style="rounded=0;whiteSpace=wrap;html=1;strokeColor=#BAC8D3;fontColor=#EEEEEE;fillColor=#09555B;" vertex="1" parent="1">
          <mxGeometry x="500" y="408.61" width="70" height="52.8" as="geometry" />
        </mxCell>
        <mxCell id="vMGZGPtzZTwcsV-AKPQY-31" value="Required destination came up" style="rounded=0;whiteSpace=wrap;html=1;strokeColor=#BAC8D3;fontColor=#EEEEEE;fillColor=#09555B;" vertex="1" parent="1">
          <mxGeometry x="600" y="408.61" width="80" height="52.81" as="geometry" />
        </mxCell>
        <mxCell id="vMGZGPtzZTwcsV-AKPQY-32" value="Stop" style="ellipse;whiteSpace=wrap;html=1;aspect=fixed;strokeColor=#BAC8D3;fontColor=#EEEEEE;fillColor=#09555B;" vertex="1" parent="1">
          <mxGeometry x="710" y="405.02" width="60" height="60" as="geometry" />
        </mxCell>
        <mxCell id="vMGZGPtzZTwcsV-AKPQY-33" value="" style="endArrow=classic;html=1;rounded=0;strokeColor=#0B4D6A;exitX=1;exitY=0.5;exitDx=0;exitDy=0;entryX=0;entryY=0.5;entryDx=0;entryDy=0;" edge="1" parent="1" source="vMGZGPtzZTwcsV-AKPQY-27" target="vMGZGPtzZTwcsV-AKPQY-30">
          <mxGeometry width="50" height="50" relative="1" as="geometry">
            <mxPoint x="440" y="280" as="sourcePoint" />
            <mxPoint x="490" y="230" as="targetPoint" />
          </mxGeometry>
        </mxCell>
        <mxCell id="vMGZGPtzZTwcsV-AKPQY-40" value="&lt;font color=&quot;#000000&quot;&gt;No&lt;/font&gt;" style="edgeLabel;html=1;align=center;verticalAlign=middle;resizable=0;points=[];strokeColor=#BAC8D3;fontColor=#EEEEEE;fillColor=#09555B;" vertex="1" connectable="0" parent="vMGZGPtzZTwcsV-AKPQY-33">
          <mxGeometry x="-0.2036" relative="1" as="geometry">
            <mxPoint as="offset" />
          </mxGeometry>
        </mxCell>
        <mxCell id="vMGZGPtzZTwcsV-AKPQY-34" value="" style="endArrow=classic;html=1;rounded=0;strokeColor=#0B4D6A;exitX=1;exitY=0.5;exitDx=0;exitDy=0;entryX=0;entryY=0.5;entryDx=0;entryDy=0;" edge="1" parent="1" source="vMGZGPtzZTwcsV-AKPQY-26" target="vMGZGPtzZTwcsV-AKPQY-27">
          <mxGeometry width="50" height="50" relative="1" as="geometry">
            <mxPoint x="440" y="280" as="sourcePoint" />
            <mxPoint x="490" y="230" as="targetPoint" />
          </mxGeometry>
        </mxCell>
        <mxCell id="vMGZGPtzZTwcsV-AKPQY-35" value="" style="endArrow=classic;html=1;rounded=0;strokeColor=#0B4D6A;exitX=1;exitY=0.5;exitDx=0;exitDy=0;entryX=0;entryY=0.5;entryDx=0;entryDy=0;" edge="1" parent="1" source="vMGZGPtzZTwcsV-AKPQY-24" target="vMGZGPtzZTwcsV-AKPQY-26">
          <mxGeometry width="50" height="50" relative="1" as="geometry">
            <mxPoint x="440" y="280" as="sourcePoint" />
            <mxPoint x="490" y="230" as="targetPoint" />
          </mxGeometry>
        </mxCell>
        <mxCell id="vMGZGPtzZTwcsV-AKPQY-36" value="" style="endArrow=classic;html=1;rounded=0;strokeColor=#0B4D6A;exitX=1;exitY=0.5;exitDx=0;exitDy=0;entryX=0;entryY=0.5;entryDx=0;entryDy=0;" edge="1" parent="1" source="vMGZGPtzZTwcsV-AKPQY-22" target="vMGZGPtzZTwcsV-AKPQY-24">
          <mxGeometry width="50" height="50" relative="1" as="geometry">
            <mxPoint x="440" y="280" as="sourcePoint" />
            <mxPoint x="490" y="230" as="targetPoint" />
          </mxGeometry>
        </mxCell>
        <mxCell id="vMGZGPtzZTwcsV-AKPQY-37" value="" style="endArrow=classic;html=1;rounded=0;strokeColor=#0B4D6A;entryX=0;entryY=0.5;entryDx=0;entryDy=0;exitX=1;exitY=0.5;exitDx=0;exitDy=0;" edge="1" parent="1" source="vMGZGPtzZTwcsV-AKPQY-30" target="vMGZGPtzZTwcsV-AKPQY-31">
          <mxGeometry width="50" height="50" relative="1" as="geometry">
            <mxPoint x="450" y="290" as="sourcePoint" />
            <mxPoint x="500" y="240" as="targetPoint" />
          </mxGeometry>
        </mxCell>
        <mxCell id="vMGZGPtzZTwcsV-AKPQY-38" value="" style="endArrow=classic;html=1;rounded=0;strokeColor=#0B4D6A;entryX=0;entryY=0.5;entryDx=0;entryDy=0;exitX=1;exitY=0.5;exitDx=0;exitDy=0;" edge="1" parent="1" source="vMGZGPtzZTwcsV-AKPQY-31" target="vMGZGPtzZTwcsV-AKPQY-32">
          <mxGeometry width="50" height="50" relative="1" as="geometry">
            <mxPoint x="460" y="300" as="sourcePoint" />
            <mxPoint x="510" y="250" as="targetPoint" />
          </mxGeometry>
        </mxCell>
        <mxCell id="vMGZGPtzZTwcsV-AKPQY-39" value="" style="endArrow=classic;html=1;rounded=0;strokeColor=#0B4D6A;" edge="1" parent="1">
          <mxGeometry width="50" height="50" relative="1" as="geometry">
            <mxPoint x="470" y="310" as="sourcePoint" />
            <mxPoint x="520" y="260" as="targetPoint" />
          </mxGeometry>
        </mxCell>
        <mxCell id="vMGZGPtzZTwcsV-AKPQY-41" value="" style="endArrow=classic;html=1;rounded=0;strokeColor=#0B4D6A;exitX=0.5;exitY=0;exitDx=0;exitDy=0;entryX=0.5;entryY=0;entryDx=0;entryDy=0;" edge="1" parent="1" source="vMGZGPtzZTwcsV-AKPQY-27" target="vMGZGPtzZTwcsV-AKPQY-32">
          <mxGeometry width="50" height="50" relative="1" as="geometry">
            <mxPoint x="460" y="390" as="sourcePoint" />
            <mxPoint x="510" y="340" as="targetPoint" />
            <Array as="points">
              <mxPoint x="400" y="360" />
              <mxPoint x="740" y="360" />
            </Array>
          </mxGeometry>
        </mxCell>
        <mxCell id="vMGZGPtzZTwcsV-AKPQY-42" value="&lt;font color=&quot;#000000&quot;&gt;Yes&lt;/font&gt;" style="edgeLabel;html=1;align=center;verticalAlign=middle;resizable=0;points=[];strokeColor=#BAC8D3;fontColor=#EEEEEE;fillColor=#09555B;" vertex="1" connectable="0" parent="vMGZGPtzZTwcsV-AKPQY-41">
          <mxGeometry x="-0.063" relative="1" as="geometry">
            <mxPoint x="-99" as="offset" />
          </mxGeometry>
        </mxCell>
        <mxCell id="vMGZGPtzZTwcsV-AKPQY-43" value="" style="rounded=0;whiteSpace=wrap;html=1;" vertex="1" parent="1">
          <mxGeometry x="34" y="580" width="760" height="550" as="geometry" />
        </mxCell>
        <mxCell id="vMGZGPtzZTwcsV-AKPQY-44" value="&lt;font color=&quot;#000000&quot;&gt;Adopt me Procedure - Adopter&lt;/font&gt;" style="text;html=1;align=center;verticalAlign=middle;whiteSpace=wrap;rounded=0;fontColor=#EEEEEE;" vertex="1" parent="1">
          <mxGeometry x="65" y="610" width="165" height="30" as="geometry" />
        </mxCell>
        <mxCell id="vMGZGPtzZTwcsV-AKPQY-46" value="Start" style="ellipse;whiteSpace=wrap;html=1;aspect=fixed;strokeColor=#BAC8D3;fontColor=#EEEEEE;fillColor=#09555B;" vertex="1" parent="1">
          <mxGeometry x="62.5" y="701.25" width="60" height="60" as="geometry" />
        </mxCell>
        <mxCell id="vMGZGPtzZTwcsV-AKPQY-48" value="Stop" style="ellipse;whiteSpace=wrap;html=1;aspect=fixed;strokeColor=#BAC8D3;fontColor=#EEEEEE;fillColor=#09555B;" vertex="1" parent="1">
          <mxGeometry x="720" y="1005" width="60" height="60" as="geometry" />
        </mxCell>
        <mxCell id="vMGZGPtzZTwcsV-AKPQY-49" value="" style="endArrow=classic;html=1;rounded=0;strokeColor=#0B4D6A;entryX=1;entryY=0.5;entryDx=0;entryDy=0;exitX=1;exitY=0.5;exitDx=0;exitDy=0;" edge="1" parent="1" source="vMGZGPtzZTwcsV-AKPQY-57" target="vMGZGPtzZTwcsV-AKPQY-58">
          <mxGeometry width="50" height="50" relative="1" as="geometry">
            <mxPoint x="460" y="1220" as="sourcePoint" />
            <mxPoint x="510" y="1180" as="targetPoint" />
            <Array as="points">
              <mxPoint x="280" y="861" />
              <mxPoint x="280" y="901" />
            </Array>
          </mxGeometry>
        </mxCell>
        <mxCell id="vMGZGPtzZTwcsV-AKPQY-50" value="&quot;Adopt me&quot;" style="rounded=0;whiteSpace=wrap;html=1;strokeColor=#BAC8D3;fontColor=#EEEEEE;fillColor=#09555B;" vertex="1" parent="1">
          <mxGeometry x="545" y="841.25" width="70" height="40" as="geometry" />
        </mxCell>
        <mxCell id="vMGZGPtzZTwcsV-AKPQY-51" value="Open the application form" style="rounded=0;whiteSpace=wrap;html=1;strokeColor=#BAC8D3;fontColor=#EEEEEE;fillColor=#09555B;" vertex="1" parent="1">
          <mxGeometry x="420" y="831.25" width="80" height="60" as="geometry" />
        </mxCell>
        <mxCell id="vMGZGPtzZTwcsV-AKPQY-52" value="Fill the form" style="rounded=0;whiteSpace=wrap;html=1;strokeColor=#BAC8D3;fontColor=#EEEEEE;fillColor=#09555B;" vertex="1" parent="1">
          <mxGeometry x="310" y="841.25" width="70" height="40" as="geometry" />
        </mxCell>
        <mxCell id="vMGZGPtzZTwcsV-AKPQY-56" value="Enter Username" style="rounded=0;whiteSpace=wrap;html=1;strokeColor=#BAC8D3;fontColor=#EEEEEE;fillColor=#09555B;" vertex="1" parent="1">
          <mxGeometry x="155" y="806.25" width="90" height="30" as="geometry" />
        </mxCell>
        <mxCell id="vMGZGPtzZTwcsV-AKPQY-57" value="Enter Address" style="rounded=0;whiteSpace=wrap;html=1;strokeColor=#BAC8D3;fontColor=#EEEEEE;fillColor=#09555B;" vertex="1" parent="1">
          <mxGeometry x="155" y="846.25" width="90" height="30" as="geometry" />
        </mxCell>
        <mxCell id="vMGZGPtzZTwcsV-AKPQY-58" value="Enter PhoneNo" style="rounded=0;whiteSpace=wrap;html=1;strokeColor=#BAC8D3;fontColor=#EEEEEE;fillColor=#09555B;" vertex="1" parent="1">
          <mxGeometry x="155" y="886.25" width="90" height="30" as="geometry" />
        </mxCell>
        <mxCell id="vMGZGPtzZTwcsV-AKPQY-59" value="Verify&amp;nbsp;&lt;div&gt;OTP ?&lt;/div&gt;" style="rhombus;whiteSpace=wrap;html=1;strokeColor=#BAC8D3;fontColor=#EEEEEE;fillColor=#09555B;" vertex="1" parent="1">
          <mxGeometry x="150" y="1000" width="75" height="70" as="geometry" />
        </mxCell>
        <mxCell id="vMGZGPtzZTwcsV-AKPQY-60" value="Resend OTP" style="rounded=0;whiteSpace=wrap;html=1;strokeColor=#BAC8D3;fontColor=#EEEEEE;fillColor=#09555B;" vertex="1" parent="1">
          <mxGeometry x="50" y="950" width="90" height="30" as="geometry" />
        </mxCell>
        <mxCell id="vMGZGPtzZTwcsV-AKPQY-61" value="Agreed to the terns and guidances ?&amp;nbsp;" style="rounded=0;whiteSpace=wrap;html=1;strokeColor=#BAC8D3;fontColor=#EEEEEE;fillColor=#09555B;" vertex="1" parent="1">
          <mxGeometry x="277.5" y="1000" width="100" height="70" as="geometry" />
        </mxCell>
        <mxCell id="vMGZGPtzZTwcsV-AKPQY-63" value="Tick the checkbox" style="rounded=0;whiteSpace=wrap;html=1;strokeColor=#BAC8D3;fontColor=#EEEEEE;fillColor=#09555B;" vertex="1" parent="1">
          <mxGeometry x="432.5" y="1016.25" width="70" height="40" as="geometry" />
        </mxCell>
        <mxCell id="vMGZGPtzZTwcsV-AKPQY-64" value="Adopter&#39;s signature" style="rounded=0;whiteSpace=wrap;html=1;strokeColor=#BAC8D3;fontColor=#EEEEEE;fillColor=#09555B;" vertex="1" parent="1">
          <mxGeometry x="530" y="1016.25" width="70" height="40" as="geometry" />
        </mxCell>
        <mxCell id="vMGZGPtzZTwcsV-AKPQY-65" value="Submit form" style="rounded=0;whiteSpace=wrap;html=1;strokeColor=#BAC8D3;fontColor=#EEEEEE;fillColor=#09555B;" vertex="1" parent="1">
          <mxGeometry x="630" y="1016.25" width="70" height="40" as="geometry" />
        </mxCell>
        <mxCell id="vMGZGPtzZTwcsV-AKPQY-66" value="Open App" style="rounded=0;whiteSpace=wrap;html=1;strokeColor=#BAC8D3;fontColor=#EEEEEE;fillColor=#09555B;" vertex="1" parent="1">
          <mxGeometry x="165" y="706.0999999999999" width="70" height="52.8" as="geometry" />
        </mxCell>
        <mxCell id="vMGZGPtzZTwcsV-AKPQY-67" value="Explore" style="rounded=0;whiteSpace=wrap;html=1;strokeColor=#BAC8D3;fontColor=#EEEEEE;fillColor=#09555B;" vertex="1" parent="1">
          <mxGeometry x="542.5" y="706.0999999999999" width="70" height="52.8" as="geometry" />
        </mxCell>
        <mxCell id="vMGZGPtzZTwcsV-AKPQY-99" value="" style="edgeStyle=orthogonalEdgeStyle;rounded=0;orthogonalLoop=1;jettySize=auto;html=1;strokeColor=#0B4D6A;" edge="1" parent="1" source="vMGZGPtzZTwcsV-AKPQY-68" target="vMGZGPtzZTwcsV-AKPQY-72">
          <mxGeometry relative="1" as="geometry" />
        </mxCell>
        <mxCell id="vMGZGPtzZTwcsV-AKPQY-68" value="Already Register ?" style="rhombus;whiteSpace=wrap;html=1;strokeColor=#BAC8D3;fontColor=#EEEEEE;fillColor=#09555B;" vertex="1" parent="1">
          <mxGeometry x="287.5" y="690" width="80" height="85" as="geometry" />
        </mxCell>
        <mxCell id="vMGZGPtzZTwcsV-AKPQY-69" value="Already Locate ?" style="rhombus;whiteSpace=wrap;html=1;strokeColor=#BAC8D3;fontColor=#EEEEEE;fillColor=#09555B;" vertex="1" parent="1">
          <mxGeometry x="427.5" y="690" width="80" height="85" as="geometry" />
        </mxCell>
        <mxCell id="vMGZGPtzZTwcsV-AKPQY-70" value="Found a suitable partner" style="rounded=0;whiteSpace=wrap;html=1;strokeColor=#BAC8D3;fontColor=#EEEEEE;fillColor=#09555B;" vertex="1" parent="1">
          <mxGeometry x="645" y="835.5500000000001" width="100" height="51.4" as="geometry" />
        </mxCell>
        <mxCell id="vMGZGPtzZTwcsV-AKPQY-71" value="Checking the profiles" style="rounded=0;whiteSpace=wrap;html=1;strokeColor=#BAC8D3;fontColor=#EEEEEE;fillColor=#09555B;" vertex="1" parent="1">
          <mxGeometry x="652.5" y="706.1" width="85" height="52.8" as="geometry" />
        </mxCell>
        <mxCell id="vMGZGPtzZTwcsV-AKPQY-72" value="Google Login" style="rounded=0;whiteSpace=wrap;html=1;strokeColor=#BAC8D3;fontColor=#EEEEEE;fillColor=#09555B;" vertex="1" parent="1">
          <mxGeometry x="286.25" y="605" width="82.5" height="35" as="geometry" />
        </mxCell>
        <mxCell id="vMGZGPtzZTwcsV-AKPQY-73" value="Locate" style="rounded=0;whiteSpace=wrap;html=1;strokeColor=#BAC8D3;fontColor=#EEEEEE;fillColor=#09555B;" vertex="1" parent="1">
          <mxGeometry x="426.25" y="605" width="82.5" height="35" as="geometry" />
        </mxCell>
        <mxCell id="vMGZGPtzZTwcsV-AKPQY-74" value="" style="endArrow=classic;html=1;rounded=0;strokeColor=#0B4D6A;exitX=1;exitY=0.5;exitDx=0;exitDy=0;entryX=0;entryY=0.5;entryDx=0;entryDy=0;" edge="1" parent="1" source="vMGZGPtzZTwcsV-AKPQY-46" target="vMGZGPtzZTwcsV-AKPQY-66">
          <mxGeometry width="50" height="50" relative="1" as="geometry">
            <mxPoint x="470" y="1230" as="sourcePoint" />
            <mxPoint x="520" y="1180" as="targetPoint" />
          </mxGeometry>
        </mxCell>
        <mxCell id="vMGZGPtzZTwcsV-AKPQY-75" value="" style="endArrow=classic;html=1;rounded=0;strokeColor=#0B4D6A;entryX=0;entryY=0.5;entryDx=0;entryDy=0;exitX=1;exitY=0.5;exitDx=0;exitDy=0;" edge="1" parent="1" source="vMGZGPtzZTwcsV-AKPQY-66" target="vMGZGPtzZTwcsV-AKPQY-68">
          <mxGeometry width="50" height="50" relative="1" as="geometry">
            <mxPoint x="470" y="1230" as="sourcePoint" />
            <mxPoint x="520" y="1180" as="targetPoint" />
          </mxGeometry>
        </mxCell>
        <mxCell id="vMGZGPtzZTwcsV-AKPQY-76" value="" style="endArrow=classic;html=1;rounded=0;strokeColor=#0B4D6A;entryX=0;entryY=0.5;entryDx=0;entryDy=0;exitX=1;exitY=0.5;exitDx=0;exitDy=0;" edge="1" parent="1" source="vMGZGPtzZTwcsV-AKPQY-68" target="vMGZGPtzZTwcsV-AKPQY-69">
          <mxGeometry width="50" height="50" relative="1" as="geometry">
            <mxPoint x="470" y="1230" as="sourcePoint" />
            <mxPoint x="520" y="1180" as="targetPoint" />
          </mxGeometry>
        </mxCell>
        <mxCell id="vMGZGPtzZTwcsV-AKPQY-98" value="&lt;font color=&quot;#000000&quot;&gt;Yes&lt;/font&gt;" style="edgeLabel;html=1;align=center;verticalAlign=middle;resizable=0;points=[];strokeColor=#BAC8D3;fontColor=#EEEEEE;fillColor=#09555B;" vertex="1" connectable="0" parent="vMGZGPtzZTwcsV-AKPQY-76">
          <mxGeometry x="-0.3711" y="1" relative="1" as="geometry">
            <mxPoint as="offset" />
          </mxGeometry>
        </mxCell>
        <mxCell id="vMGZGPtzZTwcsV-AKPQY-77" value="" style="endArrow=classic;html=1;rounded=0;strokeColor=#0B4D6A;entryX=0;entryY=0.5;entryDx=0;entryDy=0;exitX=1;exitY=0.5;exitDx=0;exitDy=0;" edge="1" parent="1" source="vMGZGPtzZTwcsV-AKPQY-69" target="vMGZGPtzZTwcsV-AKPQY-67">
          <mxGeometry width="50" height="50" relative="1" as="geometry">
            <mxPoint x="470" y="1230" as="sourcePoint" />
            <mxPoint x="520" y="1180" as="targetPoint" />
          </mxGeometry>
        </mxCell>
        <mxCell id="vMGZGPtzZTwcsV-AKPQY-101" value="&lt;font color=&quot;#000000&quot;&gt;Yes&lt;/font&gt;" style="edgeLabel;html=1;align=center;verticalAlign=middle;resizable=0;points=[];strokeColor=#BAC8D3;fontColor=#EEEEEE;fillColor=#09555B;" vertex="1" connectable="0" parent="vMGZGPtzZTwcsV-AKPQY-77">
          <mxGeometry x="0.0782" y="1" relative="1" as="geometry">
            <mxPoint as="offset" />
          </mxGeometry>
        </mxCell>
        <mxCell id="vMGZGPtzZTwcsV-AKPQY-78" value="" style="endArrow=classic;html=1;rounded=0;strokeColor=#0B4D6A;entryX=0;entryY=0.5;entryDx=0;entryDy=0;exitX=1;exitY=0.5;exitDx=0;exitDy=0;" edge="1" parent="1" source="vMGZGPtzZTwcsV-AKPQY-67" target="vMGZGPtzZTwcsV-AKPQY-71">
          <mxGeometry width="50" height="50" relative="1" as="geometry">
            <mxPoint x="480" y="1240" as="sourcePoint" />
            <mxPoint x="530" y="1190" as="targetPoint" />
          </mxGeometry>
        </mxCell>
        <mxCell id="vMGZGPtzZTwcsV-AKPQY-79" value="" style="endArrow=classic;html=1;rounded=0;strokeColor=#0B4D6A;entryX=0.5;entryY=0;entryDx=0;entryDy=0;exitX=0.5;exitY=1;exitDx=0;exitDy=0;" edge="1" parent="1" source="vMGZGPtzZTwcsV-AKPQY-71" target="vMGZGPtzZTwcsV-AKPQY-70">
          <mxGeometry width="50" height="50" relative="1" as="geometry">
            <mxPoint x="490" y="1250" as="sourcePoint" />
            <mxPoint x="540" y="1200" as="targetPoint" />
          </mxGeometry>
        </mxCell>
        <mxCell id="vMGZGPtzZTwcsV-AKPQY-80" value="" style="endArrow=classic;html=1;rounded=0;strokeColor=#0B4D6A;entryX=1;entryY=0.5;entryDx=0;entryDy=0;exitX=0.5;exitY=0;exitDx=0;exitDy=0;" edge="1" parent="1" source="vMGZGPtzZTwcsV-AKPQY-52" target="vMGZGPtzZTwcsV-AKPQY-56">
          <mxGeometry width="50" height="50" relative="1" as="geometry">
            <mxPoint x="500" y="1260" as="sourcePoint" />
            <mxPoint x="550" y="1210" as="targetPoint" />
            <Array as="points">
              <mxPoint x="345" y="821" />
            </Array>
          </mxGeometry>
        </mxCell>
        <mxCell id="vMGZGPtzZTwcsV-AKPQY-81" value="" style="endArrow=classic;html=1;rounded=0;strokeColor=#0B4D6A;entryX=1;entryY=0.5;entryDx=0;entryDy=0;exitX=0;exitY=0.5;exitDx=0;exitDy=0;" edge="1" parent="1" source="vMGZGPtzZTwcsV-AKPQY-70" target="vMGZGPtzZTwcsV-AKPQY-50">
          <mxGeometry width="50" height="50" relative="1" as="geometry">
            <mxPoint x="470" y="1230" as="sourcePoint" />
            <mxPoint x="520" y="1180" as="targetPoint" />
          </mxGeometry>
        </mxCell>
        <mxCell id="vMGZGPtzZTwcsV-AKPQY-82" value="" style="endArrow=classic;html=1;rounded=0;strokeColor=#0B4D6A;entryX=1;entryY=0.5;entryDx=0;entryDy=0;exitX=0;exitY=0.5;exitDx=0;exitDy=0;" edge="1" parent="1" source="vMGZGPtzZTwcsV-AKPQY-50" target="vMGZGPtzZTwcsV-AKPQY-51">
          <mxGeometry width="50" height="50" relative="1" as="geometry">
            <mxPoint x="480" y="1240" as="sourcePoint" />
            <mxPoint x="530" y="1190" as="targetPoint" />
          </mxGeometry>
        </mxCell>
        <mxCell id="vMGZGPtzZTwcsV-AKPQY-83" value="" style="endArrow=classic;html=1;rounded=0;strokeColor=#0B4D6A;entryX=1;entryY=0.5;entryDx=0;entryDy=0;exitX=0;exitY=0.5;exitDx=0;exitDy=0;" edge="1" parent="1" source="vMGZGPtzZTwcsV-AKPQY-51" target="vMGZGPtzZTwcsV-AKPQY-52">
          <mxGeometry width="50" height="50" relative="1" as="geometry">
            <mxPoint x="490" y="1250" as="sourcePoint" />
            <mxPoint x="540" y="1200" as="targetPoint" />
          </mxGeometry>
        </mxCell>
        <mxCell id="vMGZGPtzZTwcsV-AKPQY-84" value="" style="endArrow=classic;html=1;rounded=0;strokeColor=#0B4D6A;entryX=0;entryY=0.5;entryDx=0;entryDy=0;exitX=0;exitY=0.5;exitDx=0;exitDy=0;" edge="1" parent="1" source="vMGZGPtzZTwcsV-AKPQY-56" target="vMGZGPtzZTwcsV-AKPQY-57">
          <mxGeometry width="50" height="50" relative="1" as="geometry">
            <mxPoint x="470" y="1230" as="sourcePoint" />
            <mxPoint x="520" y="1180" as="targetPoint" />
            <Array as="points">
              <mxPoint x="120" y="821" />
              <mxPoint x="120" y="861" />
            </Array>
          </mxGeometry>
        </mxCell>
        <mxCell id="vMGZGPtzZTwcsV-AKPQY-85" value="" style="endArrow=classic;html=1;rounded=0;strokeColor=#0B4D6A;entryX=0.5;entryY=1;entryDx=0;entryDy=0;exitX=0.5;exitY=0;exitDx=0;exitDy=0;" edge="1" parent="1" source="vMGZGPtzZTwcsV-AKPQY-68" target="vMGZGPtzZTwcsV-AKPQY-72">
          <mxGeometry width="50" height="50" relative="1" as="geometry">
            <mxPoint x="480" y="1240" as="sourcePoint" />
            <mxPoint x="130" y="1180" as="targetPoint" />
          </mxGeometry>
        </mxCell>
        <mxCell id="vMGZGPtzZTwcsV-AKPQY-97" value="&lt;font color=&quot;#000000&quot;&gt;No&lt;/font&gt;" style="edgeLabel;html=1;align=center;verticalAlign=middle;resizable=0;points=[];strokeColor=#BAC8D3;fontColor=#EEEEEE;fillColor=#09555B;" vertex="1" connectable="0" parent="vMGZGPtzZTwcsV-AKPQY-85">
          <mxGeometry x="-0.4884" y="-1" relative="1" as="geometry">
            <mxPoint x="-1" y="-7" as="offset" />
          </mxGeometry>
        </mxCell>
        <mxCell id="vMGZGPtzZTwcsV-AKPQY-87" value="" style="endArrow=classic;html=1;rounded=0;strokeColor=#0B4D6A;entryX=0;entryY=0.5;entryDx=0;entryDy=0;exitX=1;exitY=0.5;exitDx=0;exitDy=0;" edge="1" parent="1" source="vMGZGPtzZTwcsV-AKPQY-59" target="vMGZGPtzZTwcsV-AKPQY-61">
          <mxGeometry width="50" height="50" relative="1" as="geometry">
            <mxPoint x="490" y="1250" as="sourcePoint" />
            <mxPoint x="540" y="1200" as="targetPoint" />
          </mxGeometry>
        </mxCell>
        <mxCell id="vMGZGPtzZTwcsV-AKPQY-105" value="&lt;font color=&quot;#000000&quot;&gt;Yes&lt;/font&gt;" style="edgeLabel;html=1;align=center;verticalAlign=middle;resizable=0;points=[];strokeColor=#BAC8D3;fontColor=#EEEEEE;fillColor=#09555B;" vertex="1" connectable="0" parent="vMGZGPtzZTwcsV-AKPQY-87">
          <mxGeometry x="-0.1659" y="-1" relative="1" as="geometry">
            <mxPoint as="offset" />
          </mxGeometry>
        </mxCell>
        <mxCell id="vMGZGPtzZTwcsV-AKPQY-89" value="" style="endArrow=classic;html=1;rounded=0;strokeColor=#0B4D6A;entryX=0.5;entryY=0;entryDx=0;entryDy=0;exitX=0.353;exitY=0.948;exitDx=0;exitDy=0;exitPerimeter=0;" edge="1" parent="1" source="vMGZGPtzZTwcsV-AKPQY-58" target="vMGZGPtzZTwcsV-AKPQY-59">
          <mxGeometry width="50" height="50" relative="1" as="geometry">
            <mxPoint x="510" y="1270" as="sourcePoint" />
            <mxPoint x="560" y="1220" as="targetPoint" />
          </mxGeometry>
        </mxCell>
        <mxCell id="vMGZGPtzZTwcsV-AKPQY-90" value="" style="endArrow=classic;html=1;rounded=0;strokeColor=#0B4D6A;entryX=0;entryY=0.5;entryDx=0;entryDy=0;exitX=1;exitY=0.5;exitDx=0;exitDy=0;" edge="1" parent="1" source="vMGZGPtzZTwcsV-AKPQY-61" target="vMGZGPtzZTwcsV-AKPQY-63">
          <mxGeometry width="50" height="50" relative="1" as="geometry">
            <mxPoint x="520" y="1280" as="sourcePoint" />
            <mxPoint x="570" y="1230" as="targetPoint" />
          </mxGeometry>
        </mxCell>
        <mxCell id="vMGZGPtzZTwcsV-AKPQY-106" value="&lt;font color=&quot;#000000&quot;&gt;Yes&lt;/font&gt;" style="edgeLabel;html=1;align=center;verticalAlign=middle;resizable=0;points=[];strokeColor=#BAC8D3;fontColor=#EEEEEE;fillColor=#09555B;" vertex="1" connectable="0" parent="vMGZGPtzZTwcsV-AKPQY-90">
          <mxGeometry x="-0.1402" y="-2" relative="1" as="geometry">
            <mxPoint as="offset" />
          </mxGeometry>
        </mxCell>
        <mxCell id="vMGZGPtzZTwcsV-AKPQY-91" value="" style="endArrow=classic;html=1;rounded=0;strokeColor=#0B4D6A;entryX=0;entryY=0.5;entryDx=0;entryDy=0;exitX=1;exitY=0.5;exitDx=0;exitDy=0;" edge="1" parent="1" source="vMGZGPtzZTwcsV-AKPQY-63" target="vMGZGPtzZTwcsV-AKPQY-64">
          <mxGeometry width="50" height="50" relative="1" as="geometry">
            <mxPoint x="530" y="1290" as="sourcePoint" />
            <mxPoint x="580" y="1240" as="targetPoint" />
          </mxGeometry>
        </mxCell>
        <mxCell id="vMGZGPtzZTwcsV-AKPQY-92" value="" style="endArrow=classic;html=1;rounded=0;strokeColor=#0B4D6A;entryX=0;entryY=0.5;entryDx=0;entryDy=0;exitX=1;exitY=0.5;exitDx=0;exitDy=0;" edge="1" parent="1" source="vMGZGPtzZTwcsV-AKPQY-64" target="vMGZGPtzZTwcsV-AKPQY-65">
          <mxGeometry width="50" height="50" relative="1" as="geometry">
            <mxPoint x="540" y="1300" as="sourcePoint" />
            <mxPoint x="590" y="1250" as="targetPoint" />
          </mxGeometry>
        </mxCell>
        <mxCell id="vMGZGPtzZTwcsV-AKPQY-93" value="" style="endArrow=classic;html=1;rounded=0;strokeColor=#0B4D6A;entryX=0;entryY=0;entryDx=0;entryDy=0;exitX=1;exitY=1;exitDx=0;exitDy=0;" edge="1" parent="1" source="vMGZGPtzZTwcsV-AKPQY-72" target="vMGZGPtzZTwcsV-AKPQY-69">
          <mxGeometry width="50" height="50" relative="1" as="geometry">
            <mxPoint x="830" y="796.25" as="sourcePoint" />
            <mxPoint x="880" y="746.25" as="targetPoint" />
          </mxGeometry>
        </mxCell>
        <mxCell id="vMGZGPtzZTwcsV-AKPQY-94" value="" style="endArrow=classic;html=1;rounded=0;strokeColor=#0B4D6A;exitX=0.5;exitY=0;exitDx=0;exitDy=0;entryX=0.5;entryY=1;entryDx=0;entryDy=0;" edge="1" parent="1" source="vMGZGPtzZTwcsV-AKPQY-69" target="vMGZGPtzZTwcsV-AKPQY-73">
          <mxGeometry width="50" height="50" relative="1" as="geometry">
            <mxPoint x="840" y="806.25" as="sourcePoint" />
            <mxPoint x="890" y="756.25" as="targetPoint" />
          </mxGeometry>
        </mxCell>
        <mxCell id="vMGZGPtzZTwcsV-AKPQY-100" value="&lt;font color=&quot;#000000&quot;&gt;No&lt;/font&gt;" style="edgeLabel;html=1;align=center;verticalAlign=middle;resizable=0;points=[];strokeColor=#BAC8D3;fontColor=#EEEEEE;fillColor=#09555B;" vertex="1" connectable="0" parent="vMGZGPtzZTwcsV-AKPQY-94">
          <mxGeometry x="-0.1516" y="-1" relative="1" as="geometry">
            <mxPoint as="offset" />
          </mxGeometry>
        </mxCell>
        <mxCell id="vMGZGPtzZTwcsV-AKPQY-95" value="" style="endArrow=classic;html=1;rounded=0;strokeColor=#0B4D6A;entryX=0;entryY=0.5;entryDx=0;entryDy=0;exitX=1;exitY=0.5;exitDx=0;exitDy=0;" edge="1" parent="1" source="vMGZGPtzZTwcsV-AKPQY-65" target="vMGZGPtzZTwcsV-AKPQY-48">
          <mxGeometry width="50" height="50" relative="1" as="geometry">
            <mxPoint x="510" y="1270" as="sourcePoint" />
            <mxPoint x="560" y="1220" as="targetPoint" />
          </mxGeometry>
        </mxCell>
        <mxCell id="vMGZGPtzZTwcsV-AKPQY-96" value="" style="endArrow=classic;html=1;rounded=0;strokeColor=#0B4D6A;exitX=1;exitY=1;exitDx=0;exitDy=0;entryX=0.5;entryY=0;entryDx=0;entryDy=0;" edge="1" parent="1" source="vMGZGPtzZTwcsV-AKPQY-73" target="vMGZGPtzZTwcsV-AKPQY-67">
          <mxGeometry width="50" height="50" relative="1" as="geometry">
            <mxPoint x="478" y="700" as="sourcePoint" />
            <mxPoint x="478" y="650" as="targetPoint" />
          </mxGeometry>
        </mxCell>
        <mxCell id="vMGZGPtzZTwcsV-AKPQY-102" value="" style="endArrow=classic;html=1;rounded=0;strokeColor=#0B4D6A;exitX=0;exitY=0.5;exitDx=0;exitDy=0;entryX=0.5;entryY=1;entryDx=0;entryDy=0;" edge="1" parent="1" source="vMGZGPtzZTwcsV-AKPQY-59" target="vMGZGPtzZTwcsV-AKPQY-60">
          <mxGeometry width="50" height="50" relative="1" as="geometry">
            <mxPoint x="360" y="920" as="sourcePoint" />
            <mxPoint x="410" y="870" as="targetPoint" />
            <Array as="points">
              <mxPoint x="95" y="1036" />
            </Array>
          </mxGeometry>
        </mxCell>
        <mxCell id="vMGZGPtzZTwcsV-AKPQY-104" value="&lt;font color=&quot;#000000&quot;&gt;No&lt;/font&gt;" style="edgeLabel;html=1;align=center;verticalAlign=middle;resizable=0;points=[];strokeColor=#BAC8D3;fontColor=#EEEEEE;fillColor=#09555B;" vertex="1" connectable="0" parent="vMGZGPtzZTwcsV-AKPQY-102">
          <mxGeometry x="-0.6041" y="2" relative="1" as="geometry">
            <mxPoint as="offset" />
          </mxGeometry>
        </mxCell>
        <mxCell id="vMGZGPtzZTwcsV-AKPQY-103" value="" style="endArrow=classic;html=1;rounded=0;strokeColor=#0B4D6A;exitX=0.5;exitY=0;exitDx=0;exitDy=0;entryX=0;entryY=0.5;entryDx=0;entryDy=0;" edge="1" parent="1" source="vMGZGPtzZTwcsV-AKPQY-60" target="vMGZGPtzZTwcsV-AKPQY-58">
          <mxGeometry width="50" height="50" relative="1" as="geometry">
            <mxPoint x="360" y="920" as="sourcePoint" />
            <mxPoint x="410" y="870" as="targetPoint" />
            <Array as="points">
              <mxPoint x="95" y="901" />
            </Array>
          </mxGeometry>
        </mxCell>
        <mxCell id="vMGZGPtzZTwcsV-AKPQY-107" value="" style="endArrow=classic;html=1;rounded=0;strokeColor=#0B4D6A;exitX=0.5;exitY=0;exitDx=0;exitDy=0;entryX=0.5;entryY=0;entryDx=0;entryDy=0;" edge="1" parent="1" source="vMGZGPtzZTwcsV-AKPQY-61" target="vMGZGPtzZTwcsV-AKPQY-48">
          <mxGeometry width="50" height="50" relative="1" as="geometry">
            <mxPoint x="360" y="920" as="sourcePoint" />
            <mxPoint x="410" y="870" as="targetPoint" />
            <Array as="points">
              <mxPoint x="328" y="930" />
              <mxPoint x="750" y="930" />
            </Array>
          </mxGeometry>
        </mxCell>
        <mxCell id="vMGZGPtzZTwcsV-AKPQY-108" value="&lt;font color=&quot;#000000&quot;&gt;No&lt;/font&gt;" style="edgeLabel;html=1;align=center;verticalAlign=middle;resizable=0;points=[];strokeColor=#BAC8D3;fontColor=#EEEEEE;fillColor=#09555B;" vertex="1" connectable="0" parent="vMGZGPtzZTwcsV-AKPQY-107">
          <mxGeometry x="-0.1239" y="-1" relative="1" as="geometry">
            <mxPoint x="-106" as="offset" />
          </mxGeometry>
        </mxCell>
        <mxCell id="vMGZGPtzZTwcsV-AKPQY-111" value="" style="rounded=0;whiteSpace=wrap;html=1;" vertex="1" parent="1">
          <mxGeometry x="34" y="1240" width="760" height="190" as="geometry" />
        </mxCell>
        <mxCell id="vMGZGPtzZTwcsV-AKPQY-112" value="&lt;font color=&quot;#000000&quot;&gt;Adoption Approval - Giver&lt;/font&gt;" style="text;html=1;align=center;verticalAlign=middle;whiteSpace=wrap;rounded=0;fontColor=#EEEEEE;" vertex="1" parent="1">
          <mxGeometry x="60" y="1260" width="140" height="30" as="geometry" />
        </mxCell>
        <mxCell id="vMGZGPtzZTwcsV-AKPQY-114" value="Start" style="ellipse;whiteSpace=wrap;html=1;aspect=fixed;strokeColor=#BAC8D3;fontColor=#EEEEEE;fillColor=#09555B;" vertex="1" parent="1">
          <mxGeometry x="60" y="1320" width="60" height="60" as="geometry" />
        </mxCell>
        <mxCell id="vMGZGPtzZTwcsV-AKPQY-115" value="Open App" style="rounded=0;whiteSpace=wrap;html=1;strokeColor=#BAC8D3;fontColor=#EEEEEE;fillColor=#09555B;" vertex="1" parent="1">
          <mxGeometry x="150" y="1323.6" width="70" height="52.8" as="geometry" />
        </mxCell>
        <mxCell id="vMGZGPtzZTwcsV-AKPQY-116" value="" style="endArrow=classic;html=1;rounded=0;strokeColor=#0B4D6A;exitX=1;exitY=0.5;exitDx=0;exitDy=0;entryX=0;entryY=0.5;entryDx=0;entryDy=0;" edge="1" parent="1" source="vMGZGPtzZTwcsV-AKPQY-114" target="vMGZGPtzZTwcsV-AKPQY-115">
          <mxGeometry width="50" height="50" relative="1" as="geometry">
            <mxPoint x="467.5" y="1848.75" as="sourcePoint" />
            <mxPoint x="517.5" y="1798.75" as="targetPoint" />
          </mxGeometry>
        </mxCell>
        <mxCell id="vMGZGPtzZTwcsV-AKPQY-117" value="" style="endArrow=classic;html=1;rounded=0;strokeColor=#0B4D6A;exitX=1;exitY=0.5;exitDx=0;exitDy=0;entryX=0;entryY=0.5;entryDx=0;entryDy=0;" edge="1" parent="1" source="vMGZGPtzZTwcsV-AKPQY-115" target="vMGZGPtzZTwcsV-AKPQY-118">
          <mxGeometry width="50" height="50" relative="1" as="geometry">
            <mxPoint x="450" y="1280" as="sourcePoint" />
            <mxPoint x="240" y="1490" as="targetPoint" />
          </mxGeometry>
        </mxCell>
        <mxCell id="vMGZGPtzZTwcsV-AKPQY-118" value="Open My Post" style="rounded=0;whiteSpace=wrap;html=1;strokeColor=#BAC8D3;fontColor=#EEEEEE;fillColor=#09555B;" vertex="1" parent="1">
          <mxGeometry x="250" y="1323.6" width="70" height="52.8" as="geometry" />
        </mxCell>
        <mxCell id="vMGZGPtzZTwcsV-AKPQY-119" value="Check the Adopters&#39;s Profiles" style="rounded=0;whiteSpace=wrap;html=1;strokeColor=#BAC8D3;fontColor=#EEEEEE;fillColor=#09555B;" vertex="1" parent="1">
          <mxGeometry x="350" y="1323.6" width="70" height="52.8" as="geometry" />
        </mxCell>
        <mxCell id="vMGZGPtzZTwcsV-AKPQY-120" value="Found a suitable partner" style="rounded=0;whiteSpace=wrap;html=1;strokeColor=#BAC8D3;fontColor=#EEEEEE;fillColor=#09555B;" vertex="1" parent="1">
          <mxGeometry x="460" y="1325" width="100" height="51.4" as="geometry" />
        </mxCell>
        <mxCell id="vMGZGPtzZTwcsV-AKPQY-122" value="Confirm" style="rounded=0;whiteSpace=wrap;html=1;strokeColor=#BAC8D3;fontColor=#EEEEEE;fillColor=#09555B;" vertex="1" parent="1">
          <mxGeometry x="620" y="1324.3" width="70" height="52.8" as="geometry" />
        </mxCell>
        <mxCell id="vMGZGPtzZTwcsV-AKPQY-123" value="Stop" style="ellipse;whiteSpace=wrap;html=1;aspect=fixed;strokeColor=#BAC8D3;fontColor=#EEEEEE;fillColor=#09555B;" vertex="1" parent="1">
          <mxGeometry x="710" y="1320" width="60" height="60" as="geometry" />
        </mxCell>
        <mxCell id="vMGZGPtzZTwcsV-AKPQY-124" value="" style="endArrow=classic;html=1;rounded=0;strokeColor=#0B4D6A;exitX=1;exitY=0.5;exitDx=0;exitDy=0;entryX=0;entryY=0.5;entryDx=0;entryDy=0;" edge="1" parent="1" source="vMGZGPtzZTwcsV-AKPQY-118" target="vMGZGPtzZTwcsV-AKPQY-119">
          <mxGeometry width="50" height="50" relative="1" as="geometry">
            <mxPoint x="450" y="1230" as="sourcePoint" />
            <mxPoint x="500" y="1180" as="targetPoint" />
          </mxGeometry>
        </mxCell>
        <mxCell id="vMGZGPtzZTwcsV-AKPQY-126" value="" style="endArrow=classic;html=1;rounded=0;strokeColor=#0B4D6A;exitX=1;exitY=0.5;exitDx=0;exitDy=0;entryX=0;entryY=0.5;entryDx=0;entryDy=0;" edge="1" parent="1" source="vMGZGPtzZTwcsV-AKPQY-119" target="vMGZGPtzZTwcsV-AKPQY-120">
          <mxGeometry width="50" height="50" relative="1" as="geometry">
            <mxPoint x="450" y="1230" as="sourcePoint" />
            <mxPoint x="500" y="1180" as="targetPoint" />
          </mxGeometry>
        </mxCell>
        <mxCell id="vMGZGPtzZTwcsV-AKPQY-127" value="" style="endArrow=classic;html=1;rounded=0;strokeColor=#0B4D6A;exitX=1;exitY=0.5;exitDx=0;exitDy=0;entryX=0;entryY=0.5;entryDx=0;entryDy=0;" edge="1" parent="1" source="vMGZGPtzZTwcsV-AKPQY-120" target="vMGZGPtzZTwcsV-AKPQY-122">
          <mxGeometry width="50" height="50" relative="1" as="geometry">
            <mxPoint x="450" y="1230" as="sourcePoint" />
            <mxPoint x="500" y="1180" as="targetPoint" />
          </mxGeometry>
        </mxCell>
        <mxCell id="vMGZGPtzZTwcsV-AKPQY-129" value="&lt;font color=&quot;#000000&quot;&gt;Yes&lt;/font&gt;" style="edgeLabel;html=1;align=center;verticalAlign=middle;resizable=0;points=[];strokeColor=#BAC8D3;fontColor=#EEEEEE;fillColor=#09555B;" vertex="1" connectable="0" parent="vMGZGPtzZTwcsV-AKPQY-127">
          <mxGeometry x="-0.4333" y="-1" relative="1" as="geometry">
            <mxPoint as="offset" />
          </mxGeometry>
        </mxCell>
        <mxCell id="vMGZGPtzZTwcsV-AKPQY-128" value="" style="endArrow=classic;html=1;rounded=0;strokeColor=#0B4D6A;exitX=1;exitY=0.5;exitDx=0;exitDy=0;entryX=0;entryY=0.5;entryDx=0;entryDy=0;" edge="1" parent="1" source="vMGZGPtzZTwcsV-AKPQY-122" target="vMGZGPtzZTwcsV-AKPQY-123">
          <mxGeometry width="50" height="50" relative="1" as="geometry">
            <mxPoint x="450" y="1230" as="sourcePoint" />
            <mxPoint x="500" y="1180" as="targetPoint" />
          </mxGeometry>
        </mxCell>
        <mxCell id="vMGZGPtzZTwcsV-AKPQY-130" value="" style="endArrow=classic;html=1;rounded=0;strokeColor=#0B4D6A;exitX=0.5;exitY=0;exitDx=0;exitDy=0;entryX=0.5;entryY=0;entryDx=0;entryDy=0;" edge="1" parent="1" source="vMGZGPtzZTwcsV-AKPQY-120" target="vMGZGPtzZTwcsV-AKPQY-123">
          <mxGeometry width="50" height="50" relative="1" as="geometry">
            <mxPoint x="450" y="1230" as="sourcePoint" />
            <mxPoint x="500" y="1180" as="targetPoint" />
            <Array as="points">
              <mxPoint x="510" y="1270" />
              <mxPoint x="740" y="1270" />
            </Array>
          </mxGeometry>
        </mxCell>
        <mxCell id="vMGZGPtzZTwcsV-AKPQY-131" value="&lt;font color=&quot;#000000&quot;&gt;No&lt;/font&gt;" style="edgeLabel;html=1;align=center;verticalAlign=middle;resizable=0;points=[];strokeColor=#BAC8D3;fontColor=#EEEEEE;fillColor=#09555B;" vertex="1" connectable="0" parent="vMGZGPtzZTwcsV-AKPQY-130">
          <mxGeometry x="-0.2716" y="-2" relative="1" as="geometry">
            <mxPoint as="offset" />
          </mxGeometry>
        </mxCell>
        <mxCell id="vMGZGPtzZTwcsV-AKPQY-132" style="edgeStyle=orthogonalEdgeStyle;rounded=0;orthogonalLoop=1;jettySize=auto;html=1;exitX=1;exitY=0.5;exitDx=0;exitDy=0;entryX=0.9;entryY=0.519;entryDx=0;entryDy=0;entryPerimeter=0;strokeColor=#0B4D6A;" edge="1" parent="1" source="vMGZGPtzZTwcsV-AKPQY-112" target="vMGZGPtzZTwcsV-AKPQY-112">
          <mxGeometry relative="1" as="geometry" />
        </mxCell>
        <mxCell id="vMGZGPtzZTwcsV-AKPQY-133" value="" style="edgeLabel;html=1;align=center;verticalAlign=middle;resizable=0;points=[];strokeColor=#BAC8D3;fontColor=#EEEEEE;fillColor=#09555B;" vertex="1" connectable="0" parent="vMGZGPtzZTwcsV-AKPQY-132">
          <mxGeometry x="0.6188" y="1" relative="1" as="geometry">
            <mxPoint as="offset" />
          </mxGeometry>
        </mxCell>
      </root>
    </mxGraphModel>
  </diagram>
  <diagram id="qDeIptes_a7bEsY9PzC8" name="Page-3">
    <mxGraphModel dx="875" dy="503" grid="1" gridSize="10" guides="1" tooltips="1" connect="1" arrows="1" fold="1" page="1" pageScale="1" pageWidth="827" pageHeight="1169" math="0" shadow="0">
      <root>
        <mxCell id="0" />
        <mxCell id="1" parent="0" />
        <mxCell id="6ZJermkDKUEktk-l7rL9-1" value="Signup / Login in" style="rounded=0;whiteSpace=wrap;html=1;strokeColor=#BAC8D3;fontColor=#EEEEEE;fillColor=#09555B;" vertex="1" parent="1">
          <mxGeometry x="354" y="70" width="120" height="60" as="geometry" />
        </mxCell>
        <mxCell id="6ZJermkDKUEktk-l7rL9-2" value="Home Screen" style="rounded=0;whiteSpace=wrap;html=1;strokeColor=#BAC8D3;fontColor=#EEEEEE;fillColor=#09555B;" vertex="1" parent="1">
          <mxGeometry x="30" y="170" width="120" height="60" as="geometry" />
        </mxCell>
        <mxCell id="6ZJermkDKUEktk-l7rL9-5" value="Map" style="rounded=0;whiteSpace=wrap;html=1;strokeColor=#BAC8D3;fontColor=#EEEEEE;fillColor=#09555B;" vertex="1" parent="1">
          <mxGeometry x="234" y="170" width="120" height="60" as="geometry" />
        </mxCell>
        <mxCell id="6ZJermkDKUEktk-l7rL9-6" value="Favourite" style="rounded=0;whiteSpace=wrap;html=1;strokeColor=#BAC8D3;fontColor=#EEEEEE;fillColor=#09555B;" vertex="1" parent="1">
          <mxGeometry x="440" y="170" width="120" height="60" as="geometry" />
        </mxCell>
        <mxCell id="6ZJermkDKUEktk-l7rL9-7" value="Profile" style="rounded=0;whiteSpace=wrap;html=1;strokeColor=#BAC8D3;fontColor=#EEEEEE;fillColor=#09555B;" vertex="1" parent="1">
          <mxGeometry x="650" y="170" width="120" height="60" as="geometry" />
        </mxCell>
        <mxCell id="6ZJermkDKUEktk-l7rL9-8" value="Pet Catergory" style="rounded=1;whiteSpace=wrap;html=1;strokeColor=#BAC8D3;fontColor=#EEEEEE;fillColor=#09555B;" vertex="1" parent="1">
          <mxGeometry x="80" y="250" width="100" height="40" as="geometry" />
        </mxCell>
        <mxCell id="6ZJermkDKUEktk-l7rL9-9" value="Adopt a Pet" style="rounded=1;whiteSpace=wrap;html=1;strokeColor=#BAC8D3;fontColor=#EEEEEE;fillColor=#09555B;" vertex="1" parent="1">
          <mxGeometry x="80" y="310" width="100" height="40" as="geometry" />
        </mxCell>
        <mxCell id="6ZJermkDKUEktk-l7rL9-10" value="Add a Pet" style="rounded=1;whiteSpace=wrap;html=1;strokeColor=#BAC8D3;fontColor=#EEEEEE;fillColor=#09555B;" vertex="1" parent="1">
          <mxGeometry x="80" y="370" width="100" height="40" as="geometry" />
        </mxCell>
        <mxCell id="6ZJermkDKUEktk-l7rL9-11" value="View user Location" style="rounded=1;whiteSpace=wrap;html=1;strokeColor=#BAC8D3;fontColor=#EEEEEE;fillColor=#09555B;" vertex="1" parent="1">
          <mxGeometry x="280" y="250" width="100" height="40" as="geometry" />
        </mxCell>
        <mxCell id="6ZJermkDKUEktk-l7rL9-12" value="Liked Pets" style="rounded=1;whiteSpace=wrap;html=1;strokeColor=#BAC8D3;fontColor=#EEEEEE;fillColor=#09555B;" vertex="1" parent="1">
          <mxGeometry x="480" y="250" width="100" height="40" as="geometry" />
        </mxCell>
        <mxCell id="6ZJermkDKUEktk-l7rL9-13" value="Add new Pets" style="rounded=1;whiteSpace=wrap;html=1;strokeColor=#BAC8D3;fontColor=#EEEEEE;fillColor=#09555B;" vertex="1" parent="1">
          <mxGeometry x="697" y="250" width="100" height="40" as="geometry" />
        </mxCell>
        <mxCell id="6ZJermkDKUEktk-l7rL9-14" value="My Post" style="rounded=1;whiteSpace=wrap;html=1;strokeColor=#BAC8D3;fontColor=#EEEEEE;fillColor=#09555B;" vertex="1" parent="1">
          <mxGeometry x="697" y="310" width="100" height="40" as="geometry" />
        </mxCell>
        <mxCell id="6ZJermkDKUEktk-l7rL9-15" value="Favourites" style="rounded=1;whiteSpace=wrap;html=1;strokeColor=#BAC8D3;fontColor=#EEEEEE;fillColor=#09555B;" vertex="1" parent="1">
          <mxGeometry x="697" y="370" width="100" height="40" as="geometry" />
        </mxCell>
        <mxCell id="6ZJermkDKUEktk-l7rL9-16" value="Inboxes" style="rounded=1;whiteSpace=wrap;html=1;strokeColor=#BAC8D3;fontColor=#EEEEEE;fillColor=#09555B;" vertex="1" parent="1">
          <mxGeometry x="697" y="430" width="100" height="40" as="geometry" />
        </mxCell>
        <mxCell id="6ZJermkDKUEktk-l7rL9-17" value="Help &amp;amp; Support" style="rounded=1;whiteSpace=wrap;html=1;strokeColor=#BAC8D3;fontColor=#EEEEEE;fillColor=#09555B;" vertex="1" parent="1">
          <mxGeometry x="697" y="490" width="100" height="40" as="geometry" />
        </mxCell>
        <mxCell id="6ZJermkDKUEktk-l7rL9-18" value="" style="edgeStyle=elbowEdgeStyle;elbow=vertical;endArrow=classic;html=1;curved=0;rounded=0;endSize=8;startSize=8;strokeColor=#0B4D6A;exitX=0;exitY=1;exitDx=0;exitDy=0;entryX=0;entryY=0.5;entryDx=0;entryDy=0;" edge="1" parent="1" target="6ZJermkDKUEktk-l7rL9-8">
          <mxGeometry width="50" height="50" relative="1" as="geometry">
            <mxPoint x="50" y="230" as="sourcePoint" />
            <mxPoint x="460" y="290" as="targetPoint" />
            <Array as="points">
              <mxPoint x="50" y="270" />
            </Array>
          </mxGeometry>
        </mxCell>
        <mxCell id="6ZJermkDKUEktk-l7rL9-19" value="" style="edgeStyle=segmentEdgeStyle;endArrow=classic;html=1;curved=0;rounded=0;endSize=8;startSize=8;strokeColor=#0B4D6A;entryX=0;entryY=0.5;entryDx=0;entryDy=0;" edge="1" parent="1" target="6ZJermkDKUEktk-l7rL9-9">
          <mxGeometry width="50" height="50" relative="1" as="geometry">
            <mxPoint x="50" y="270" as="sourcePoint" />
            <mxPoint x="460" y="290" as="targetPoint" />
            <Array as="points">
              <mxPoint x="50" y="330" />
            </Array>
          </mxGeometry>
        </mxCell>
        <mxCell id="6ZJermkDKUEktk-l7rL9-20" value="" style="edgeStyle=segmentEdgeStyle;endArrow=classic;html=1;curved=0;rounded=0;endSize=8;startSize=8;strokeColor=#0B4D6A;entryX=0;entryY=0.5;entryDx=0;entryDy=0;" edge="1" parent="1">
          <mxGeometry width="50" height="50" relative="1" as="geometry">
            <mxPoint x="50" y="330" as="sourcePoint" />
            <mxPoint x="80" y="390" as="targetPoint" />
            <Array as="points">
              <mxPoint x="50" y="390" />
            </Array>
          </mxGeometry>
        </mxCell>
        <mxCell id="6ZJermkDKUEktk-l7rL9-21" value="" style="edgeStyle=elbowEdgeStyle;elbow=vertical;endArrow=classic;html=1;curved=0;rounded=0;endSize=8;startSize=8;strokeColor=#0B4D6A;exitX=0;exitY=1;exitDx=0;exitDy=0;entryX=0;entryY=0.5;entryDx=0;entryDy=0;" edge="1" parent="1">
          <mxGeometry width="50" height="50" relative="1" as="geometry">
            <mxPoint x="667" y="230" as="sourcePoint" />
            <mxPoint x="697" y="270" as="targetPoint" />
            <Array as="points">
              <mxPoint x="667" y="270" />
            </Array>
          </mxGeometry>
        </mxCell>
        <mxCell id="6ZJermkDKUEktk-l7rL9-22" value="" style="edgeStyle=segmentEdgeStyle;endArrow=classic;html=1;curved=0;rounded=0;endSize=8;startSize=8;strokeColor=#0B4D6A;entryX=0;entryY=0.5;entryDx=0;entryDy=0;" edge="1" parent="1">
          <mxGeometry width="50" height="50" relative="1" as="geometry">
            <mxPoint x="667" y="270" as="sourcePoint" />
            <mxPoint x="697" y="330" as="targetPoint" />
            <Array as="points">
              <mxPoint x="667" y="330" />
            </Array>
          </mxGeometry>
        </mxCell>
        <mxCell id="6ZJermkDKUEktk-l7rL9-23" value="" style="edgeStyle=segmentEdgeStyle;endArrow=classic;html=1;curved=0;rounded=0;endSize=8;startSize=8;strokeColor=#0B4D6A;entryX=0;entryY=0.5;entryDx=0;entryDy=0;" edge="1" parent="1">
          <mxGeometry width="50" height="50" relative="1" as="geometry">
            <mxPoint x="667" y="330" as="sourcePoint" />
            <mxPoint x="697" y="390" as="targetPoint" />
            <Array as="points">
              <mxPoint x="667" y="390" />
            </Array>
          </mxGeometry>
        </mxCell>
        <mxCell id="6ZJermkDKUEktk-l7rL9-24" value="" style="edgeStyle=elbowEdgeStyle;elbow=vertical;endArrow=classic;html=1;curved=0;rounded=0;endSize=8;startSize=8;strokeColor=#0B4D6A;exitX=0;exitY=1;exitDx=0;exitDy=0;entryX=0;entryY=0.5;entryDx=0;entryDy=0;" edge="1" parent="1">
          <mxGeometry width="50" height="50" relative="1" as="geometry">
            <mxPoint x="250" y="230" as="sourcePoint" />
            <mxPoint x="280" y="270" as="targetPoint" />
            <Array as="points">
              <mxPoint x="250" y="270" />
            </Array>
          </mxGeometry>
        </mxCell>
        <mxCell id="6ZJermkDKUEktk-l7rL9-25" value="" style="edgeStyle=elbowEdgeStyle;elbow=vertical;endArrow=classic;html=1;curved=0;rounded=0;endSize=8;startSize=8;strokeColor=#0B4D6A;exitX=0;exitY=0.5;exitDx=0;exitDy=0;entryX=0.5;entryY=0;entryDx=0;entryDy=0;" edge="1" parent="1" source="6ZJermkDKUEktk-l7rL9-1" target="6ZJermkDKUEktk-l7rL9-2">
          <mxGeometry width="50" height="50" relative="1" as="geometry">
            <mxPoint x="130" y="40" as="sourcePoint" />
            <mxPoint x="160" y="80" as="targetPoint" />
            <Array as="points">
              <mxPoint x="220" y="100" />
            </Array>
          </mxGeometry>
        </mxCell>
        <mxCell id="6ZJermkDKUEktk-l7rL9-26" value="" style="edgeStyle=elbowEdgeStyle;elbow=vertical;endArrow=classic;html=1;curved=0;rounded=0;endSize=8;startSize=8;strokeColor=#0B4D6A;entryX=0;entryY=0.5;entryDx=0;entryDy=0;" edge="1" parent="1">
          <mxGeometry width="50" height="50" relative="1" as="geometry">
            <mxPoint x="667" y="390" as="sourcePoint" />
            <mxPoint x="697" y="450" as="targetPoint" />
            <Array as="points">
              <mxPoint x="667" y="450" />
            </Array>
          </mxGeometry>
        </mxCell>
        <mxCell id="6ZJermkDKUEktk-l7rL9-27" value="" style="edgeStyle=segmentEdgeStyle;endArrow=classic;html=1;curved=0;rounded=0;endSize=8;startSize=8;strokeColor=#0B4D6A;entryX=0;entryY=0.5;entryDx=0;entryDy=0;" edge="1" parent="1">
          <mxGeometry width="50" height="50" relative="1" as="geometry">
            <mxPoint x="667" y="450" as="sourcePoint" />
            <mxPoint x="697" y="510" as="targetPoint" />
            <Array as="points">
              <mxPoint x="667" y="510" />
            </Array>
          </mxGeometry>
        </mxCell>
        <mxCell id="6ZJermkDKUEktk-l7rL9-30" value="" style="endArrow=none;html=1;rounded=0;strokeColor=#0B4D6A;exitX=1;exitY=0.5;exitDx=0;exitDy=0;entryX=0;entryY=0.5;entryDx=0;entryDy=0;" edge="1" parent="1" source="6ZJermkDKUEktk-l7rL9-2" target="6ZJermkDKUEktk-l7rL9-5">
          <mxGeometry width="50" height="50" relative="1" as="geometry">
            <mxPoint x="390" y="240" as="sourcePoint" />
            <mxPoint x="440" y="190" as="targetPoint" />
          </mxGeometry>
        </mxCell>
        <mxCell id="6ZJermkDKUEktk-l7rL9-31" value="" style="endArrow=none;html=1;rounded=0;strokeColor=#0B4D6A;entryX=0;entryY=0.5;entryDx=0;entryDy=0;exitX=1;exitY=0.5;exitDx=0;exitDy=0;" edge="1" parent="1" source="6ZJermkDKUEktk-l7rL9-5" target="6ZJermkDKUEktk-l7rL9-6">
          <mxGeometry width="50" height="50" relative="1" as="geometry">
            <mxPoint x="360" y="200" as="sourcePoint" />
            <mxPoint x="244" y="210" as="targetPoint" />
          </mxGeometry>
        </mxCell>
        <mxCell id="6ZJermkDKUEktk-l7rL9-32" value="" style="endArrow=none;html=1;rounded=0;strokeColor=#0B4D6A;entryX=0;entryY=0.5;entryDx=0;entryDy=0;exitX=1;exitY=0.5;exitDx=0;exitDy=0;" edge="1" parent="1" source="6ZJermkDKUEktk-l7rL9-6" target="6ZJermkDKUEktk-l7rL9-7">
          <mxGeometry width="50" height="50" relative="1" as="geometry">
            <mxPoint x="364" y="210" as="sourcePoint" />
            <mxPoint x="450" y="210" as="targetPoint" />
          </mxGeometry>
        </mxCell>
        <mxCell id="6ZJermkDKUEktk-l7rL9-34" value="" style="edgeStyle=elbowEdgeStyle;elbow=vertical;endArrow=classic;html=1;curved=0;rounded=0;endSize=8;startSize=8;strokeColor=#0B4D6A;exitX=1;exitY=0.5;exitDx=0;exitDy=0;entryX=0.5;entryY=0;entryDx=0;entryDy=0;" edge="1" parent="1" source="6ZJermkDKUEktk-l7rL9-1" target="6ZJermkDKUEktk-l7rL9-7">
          <mxGeometry width="50" height="50" relative="1" as="geometry">
            <mxPoint x="784" y="60" as="sourcePoint" />
            <mxPoint x="520" y="130" as="targetPoint" />
            <Array as="points">
              <mxPoint x="590" y="100" />
            </Array>
          </mxGeometry>
        </mxCell>
        <mxCell id="6ZJermkDKUEktk-l7rL9-35" value="" style="edgeStyle=elbowEdgeStyle;elbow=vertical;endArrow=classic;html=1;curved=0;rounded=0;endSize=8;startSize=8;strokeColor=#0B4D6A;exitX=1;exitY=0.5;exitDx=0;exitDy=0;entryX=0.5;entryY=0;entryDx=0;entryDy=0;" edge="1" parent="1" source="6ZJermkDKUEktk-l7rL9-1" target="6ZJermkDKUEktk-l7rL9-6">
          <mxGeometry width="50" height="50" relative="1" as="geometry">
            <mxPoint x="484" y="110" as="sourcePoint" />
            <mxPoint x="720" y="180" as="targetPoint" />
            <Array as="points">
              <mxPoint x="500" y="100" />
            </Array>
          </mxGeometry>
        </mxCell>
        <mxCell id="6ZJermkDKUEktk-l7rL9-36" value="" style="edgeStyle=elbowEdgeStyle;elbow=vertical;endArrow=classic;html=1;curved=0;rounded=0;endSize=8;startSize=8;strokeColor=#0B4D6A;exitX=0;exitY=0.5;exitDx=0;exitDy=0;entryX=0.5;entryY=0;entryDx=0;entryDy=0;" edge="1" parent="1" source="6ZJermkDKUEktk-l7rL9-1" target="6ZJermkDKUEktk-l7rL9-5">
          <mxGeometry width="50" height="50" relative="1" as="geometry">
            <mxPoint x="484" y="110" as="sourcePoint" />
            <mxPoint x="510" y="180" as="targetPoint" />
            <Array as="points">
              <mxPoint x="300" y="100" />
            </Array>
          </mxGeometry>
        </mxCell>
        <mxCell id="6ZJermkDKUEktk-l7rL9-37" value="" style="edgeStyle=elbowEdgeStyle;elbow=vertical;endArrow=classic;html=1;curved=0;rounded=0;endSize=8;startSize=8;strokeColor=#0B4D6A;exitX=0;exitY=1;exitDx=0;exitDy=0;entryX=0;entryY=0.5;entryDx=0;entryDy=0;" edge="1" parent="1">
          <mxGeometry width="50" height="50" relative="1" as="geometry">
            <mxPoint x="450" y="230" as="sourcePoint" />
            <mxPoint x="480" y="270" as="targetPoint" />
            <Array as="points">
              <mxPoint x="450" y="270" />
            </Array>
          </mxGeometry>
        </mxCell>
        <mxCell id="6ZJermkDKUEktk-l7rL9-38" value="Logout" style="rounded=1;whiteSpace=wrap;html=1;strokeColor=#BAC8D3;fontColor=#EEEEEE;fillColor=#09555B;" vertex="1" parent="1">
          <mxGeometry x="697" y="550" width="100" height="40" as="geometry" />
        </mxCell>
        <mxCell id="6ZJermkDKUEktk-l7rL9-39" value="" style="edgeStyle=segmentEdgeStyle;endArrow=classic;html=1;curved=0;rounded=0;endSize=8;startSize=8;strokeColor=#0B4D6A;entryX=0;entryY=0.5;entryDx=0;entryDy=0;" edge="1" parent="1">
          <mxGeometry width="50" height="50" relative="1" as="geometry">
            <mxPoint x="667" y="510" as="sourcePoint" />
            <mxPoint x="697" y="570" as="targetPoint" />
            <Array as="points">
              <mxPoint x="667" y="570" />
            </Array>
          </mxGeometry>
        </mxCell>
      </root>
    </mxGraphModel>
  </diagram>
</mxfile>
